<?xml version="1.0" standalone="no"?>
<!DOCTYPE svg PUBLIC "-//W3C//DTD SVG 20010904//EN"
 "http://www.w3.org/TR/2001/REC-SVG-20010904/DTD/svg10.dtd">
<svg version="1.0" xmlns="http://www.w3.org/2000/svg"
 width="2000.000000pt" height="2250.000000pt" viewBox="0 0 2000.000000 2250.000000"
 preserveAspectRatio="xMidYMid meet">

<g transform="translate(0.000000,2250.000000) scale(0.100000,-0.100000)"
fill="#915EFF" stroke="none">
<path d="M9760 21443 c-52 -19 -255 -95 -450 -168 -195 -73 -422 -161 -505
-196 -330 -139 -678 -329 -874 -476 l-74 -56 7 94 c4 52 11 128 14 169 13 141
-6 190 -72 190 -57 0 -114 -41 -292 -211 -291 -278 -414 -374 -520 -405 -47
-14 -61 -13 -141 2 -116 22 -297 15 -403 -16 -303 -87 -594 -331 -742 -625
-23 -44 -51 -109 -64 -145 -18 -53 -27 -66 -51 -73 -47 -16 -357 -11 -498 6
-242 31 -381 17 -489 -48 -80 -48 -336 -266 -611 -520 -236 -218 -782 -753
-1043 -1024 -297 -307 -292 -299 -392 -595 -33 -98 -81 -218 -105 -266 -82
-158 -304 -401 -700 -763 -322 -296 -589 -560 -711 -707 -373 -443 -584 -933
-743 -1725 -38 -193 -95 -542 -166 -1020 -44 -297 -106 -669 -128 -770 -1 -5
44 -98 100 -205 400 -765 619 -1359 738 -2005 39 -209 42 -272 17 -322 -34
-66 -113 -87 -219 -57 -19 5 -23 1 -29 -32 -11 -61 3 -499 20 -600 31 -182 71
-280 581 -1430 510 -1146 687 -1585 882 -2189 l30 -90 44 -5 c68 -8 131 -44
198 -115 73 -76 116 -160 137 -271 60 -316 123 -532 212 -732 202 -453 523
-757 927 -878 88 -26 98 -27 445 -34 278 -6 372 -11 435 -24 165 -36 293 -101
427 -218 254 -222 706 -373 1062 -355 l101 5 205 -108 c113 -59 356 -185 540
-280 427 -221 779 -423 918 -527 30 -22 41 -25 95 -21 57 4 63 7 99 48 27 30
42 40 49 33 21 -21 28 -90 22 -195 l-6 -108 24 0 c13 0 94 9 179 20 238 31
591 67 840 87 319 24 957 24 1200 0 289 -30 629 -94 813 -153 45 -15 52 -15
150 12 146 38 305 44 447 14 176 -36 375 -121 620 -264 58 -33 114 -62 125
-63 199 -18 212 -17 239 10 31 31 33 60 6 129 -11 29 -20 54 -20 55 0 6 144
75 193 92 131 48 591 151 674 151 62 0 121 -45 212 -163 113 -147 165 -191
252 -215 l36 -10 0 167 c-1 149 2 172 22 223 13 33 36 69 56 86 59 52 89 57
322 55 l212 -2 -6 153 c-9 220 -2 239 137 376 58 58 200 209 316 335 116 127
248 262 293 300 87 75 258 194 278 195 6 0 80 -75 165 -166 l153 -167 9 30
c13 46 -16 167 -62 266 -30 64 -59 105 -122 173 -133 143 -155 180 -128 217 8
10 87 43 193 78 151 51 195 61 272 66 106 6 155 -7 233 -61 25 -18 50 -35 57
-39 6 -4 -4 22 -23 59 -48 92 -46 126 9 179 75 71 132 87 352 94 186 6 191 7
243 36 30 16 65 43 79 60 61 71 113 234 113 353 0 46 3 50 226 317 455 544
747 966 1054 1520 97 175 288 559 379 760 127 283 346 823 337 832 -6 7 -157
-111 -259 -202 -163 -145 -338 -353 -459 -546 -97 -155 -148 -199 -230 -199
-52 0 -79 10 -115 43 -18 16 -23 17 -27 6 -3 -8 -33 -104 -67 -214 -34 -110
-65 -207 -70 -215 -11 -20 -11 1 5 190 7 85 12 156 11 157 0 1 -79 -59 -174
-133 -876 -686 -1730 -1321 -2485 -1848 -399 -279 -1068 -721 -1163 -770 -178
-90 -308 -67 -398 70 -22 34 -44 68 -50 77 -8 14 -28 0 -128 -87 -65 -57 -133
-111 -151 -120 -38 -18 -88 -21 -115 -6 -38 20 -55 110 -38 192 l8 37 -38 -11
c-27 -7 -67 -7 -140 2 -158 19 -188 3 -245 -135 -29 -69 -37 -80 -58 -80 -20
0 -31 12 -60 64 -38 70 -65 95 -79 73 -4 -7 -18 -83 -31 -170 -25 -171 -38
-224 -39 -157 -1 52 -18 110 -36 125 -45 37 -155 -70 -185 -180 -6 -22 -16
-10 -97 110 -50 74 -125 171 -167 215 l-76 80 25 -55 c55 -124 70 -260 32
-284 -15 -9 -24 -4 -58 31 -23 25 -41 38 -43 30 -3 -6 -10 -68 -16 -137 -6
-69 -12 -125 -13 -125 -24 0 -108 -65 -202 -156 -143 -136 -128 -131 -405
-154 -330 -28 -660 -83 -940 -156 l-115 -30 -160 40 c-714 178 -1536 309
-2280 361 -596 42 -1068 196 -1644 535 -132 78 -155 95 -126 95 29 0 110 47
154 90 55 53 85 120 84 186 0 75 -9 81 -46 32 -49 -66 -131 -101 -327 -141
l-165 -34 -250 242 c-304 293 -453 433 -1020 960 -1003 930 -1550 1476 -1991
1987 -212 246 -318 451 -604 1168 -105 264 -186 455 -226 531 l-13 27 -49 -49
c-43 -43 -54 -49 -91 -49 -59 0 -107 46 -157 152 -33 70 -39 93 -39 148 0 76
22 122 76 158 42 29 94 24 151 -14 25 -16 38 -20 38 -11 0 7 -45 325 -99 707
-119 835 -110 761 -99 840 13 97 40 170 138 369 49 100 96 205 105 233 8 29
76 604 150 1279 141 1280 160 1416 241 1739 216 867 623 1605 1312 2385 291
329 1475 1456 1721 1639 53 39 168 113 256 164 88 52 381 225 650 384 270 160
585 345 700 411 957 548 1709 801 2610 878 78 6 343 12 600 13 447 1 462 2
526 24 121 40 191 111 231 231 20 60 22 85 21 284 -1 121 -4 221 -6 224 -3 2
-16 -1 -29 -8 -12 -7 -54 -13 -93 -13 -97 -1 -168 34 -323 162 -68 56 -144
114 -169 129 -40 23 -148 67 -193 78 -8 2 -58 -12 -110 -32z m-8086 -12991
c34 -31 94 -146 166 -317 89 -211 149 -333 195 -396 42 -59 32 -61 -63 -14
-151 76 -215 165 -231 320 -13 126 -47 216 -137 366 -39 66 -40 66 -16 71 22
5 62 -9 86 -30z m-271 -10 c16 -18 140 -407 135 -423 -2 -5 -48 48 -103 117
-55 70 -115 142 -132 161 -18 19 -33 43 -33 54 0 32 28 77 58 93 36 20 56 20
75 -2z"/>
<path d="M12995 20818 c-276 -8 -304 -11 -345 -30 -63 -31 -127 -99 -161 -173
l-30 -64 -47 24 c-88 43 -139 49 -372 41 -125 -4 -236 -12 -265 -20 -128 -34
-225 -112 -278 -224 -27 -57 -32 -80 -35 -157 -4 -102 15 -173 68 -255 45 -70
213 -228 310 -292 293 -193 677 -309 1075 -324 l150 -6 120 -66 c164 -90 528
-308 759 -454 479 -304 952 -629 1836 -1264 739 -531 958 -684 1003 -700 100
-35 205 -12 422 95 88 44 169 81 180 83 19 3 20 -2 17 -107 -6 -224 31 -457
108 -678 85 -247 201 -524 249 -598 64 -97 182 -209 313 -297 250 -168 373
-379 394 -677 10 -145 -10 -285 -77 -520 -12 -39 -10 -44 73 -210 131 -261
253 -460 389 -630 97 -123 266 -293 343 -344 103 -69 108 -78 116 -223 7 -131
19 -170 67 -214 53 -49 131 -18 203 81 33 45 35 46 38 21 2 -14 -10 -144 -27
-288 -57 -487 -68 -685 -52 -883 11 -129 39 -310 48 -302 2 2 10 85 19 183 62
749 176 1343 348 1818 19 55 34 102 31 104 -7 7 -89 -45 -116 -75 -15 -15 -46
-60 -70 -98 -73 -118 -113 -157 -175 -170 l-31 -6 -6 353 c-10 552 -26 726
-185 1984 l-49 381 -1021 1635 c-992 1585 -1025 1638 -1136 1764 -653 745
-1564 1308 -2638 1630 -516 154 -741 176 -1563 152z"/>
<path d="M7051 16859 c-109 -21 -171 -92 -171 -195 0 -46 114 -494 498 -1961
273 -1047 499 -1903 502 -1903 3 0 232 497 509 1105 l505 1105 689 0 c547 0
688 -3 684 -12 -3 -7 -114 -247 -247 -533 -260 -560 -680 -1475 -888 -1935
l-129 -285 1951 -3 c1399 -2 1966 0 2003 8 64 14 130 60 149 105 8 19 14 59
14 90 0 70 -1056 4121 -1096 4202 -39 80 -112 155 -186 189 l-63 29 -2340 1
c-1287 1 -2360 -2 -2384 -7z"/>
<path d="M8691 14067 c-847 -1854 -1313 -2883 -1333 -2940 -30 -87 -31 -214
-1 -279 12 -26 34 -63 49 -83 l26 -35 1759 0 c968 0 1759 3 1759 8 0 4 -24 68
-53 142 l-53 135 -1144 5 -1145 5 -47 23 c-84 42 -130 116 -130 212 0 45 12
85 64 215 147 362 562 1283 1242 2755 141 306 256 559 256 563 0 4 -206 7
-457 7 l-458 0 -334 -733z"/>
<path d="M8185 10053 c-34 -13 -57 -28 -72 -52 l-23 -34 2 -2093 3 -2093 29
-30 c38 -40 84 -54 172 -54 87 0 157 30 191 82 l23 34 0 2072 0 2072 -22 33
c-13 18 -41 43 -63 54 -55 28 -172 33 -240 9z"/>
<path d="M5775 9751 c-60 -28 -132 -91 -162 -141 -8 -15 -198 -506 -422 -1091
l-406 -1064 -225 -5 c-240 -5 -249 -7 -293 -59 -71 -85 -56 -285 26 -345 25
-18 47 -22 177 -26 l148 -5 -200 -530 c-110 -291 -203 -549 -206 -572 -9 -83
75 -174 195 -209 67 -19 117 -10 160 30 29 27 63 109 272 656 l238 625 791 3
791 2 19 -52 c221 -585 456 -1188 470 -1207 36 -48 69 -65 127 -65 70 1 149
40 203 98 45 49 59 95 44 147 -5 19 -98 265 -206 546 -108 282 -196 517 -196
522 0 5 59 11 134 13 153 3 175 12 211 84 31 61 28 184 -5 249 -44 85 -60 89
-306 93 l-211 3 -403 1057 c-221 581 -413 1075 -426 1098 -47 83 -176 174
-249 174 -16 0 -57 -13 -90 -29z m407 -1489 l306 -807 -308 -3 c-170 -1 -450
-1 -622 0 l-314 3 277 730 c153 402 292 767 309 813 18 46 35 80 39 77 3 -4
144 -370 313 -813z"/>
<path d="M10760 8694 c-354 -31 -593 -92 -859 -220 -74 -35 -180 -95 -235
-131 -237 -158 -424 -408 -510 -681 -74 -235 -83 -523 -25 -790 85 -390 331
-747 674 -977 288 -193 606 -276 1005 -262 194 7 323 25 515 72 333 80 520
169 664 316 86 87 135 167 126 207 -15 68 -129 162 -221 182 -63 14 -89 4
-145 -50 -60 -58 -188 -134 -294 -175 -331 -126 -696 -163 -995 -100 -455 96
-822 456 -920 905 -11 46 -18 86 -16 87 2 2 32 -6 67 -16 523 -160 1206 -201
1644 -99 270 62 475 175 641 350 164 173 239 388 214 608 -16 137 -47 222
-120 331 -153 224 -419 372 -763 424 -101 15 -365 26 -447 19z m302 -435 c293
-32 513 -139 585 -287 112 -228 -116 -490 -514 -591 -146 -37 -249 -46 -523
-46 -336 0 -548 25 -785 91 -101 28 -256 82 -268 94 -11 10 40 109 103 198
109 155 297 321 455 404 125 65 298 117 455 137 97 13 375 12 492 0z"/>
<path d="M12720 8601 c-46 -14 -92 -42 -137 -84 -56 -52 -73 -84 -73 -142 0
-38 6 -51 33 -79 17 -19 307 -280 642 -581 336 -301 618 -555 628 -564 17 -16
-18 -49 -633 -600 -357 -320 -657 -592 -665 -604 -19 -27 -19 -80 0 -116 19
-38 96 -105 149 -131 52 -25 129 -26 174 -1 18 9 317 271 663 582 347 310 634
564 639 564 5 0 291 -252 636 -560 345 -308 643 -570 663 -582 80 -50 196 -19
292 77 53 53 69 101 50 148 -7 17 -279 267 -666 613 -359 321 -654 587 -654
590 -1 4 291 270 648 590 357 321 654 594 660 607 52 107 -96 274 -245 276
-45 1 -57 -4 -105 -41 -30 -23 -328 -290 -664 -592 -335 -303 -612 -551 -615
-551 -3 0 -287 255 -630 566 -344 312 -645 579 -669 595 -45 29 -74 34 -121
20z"/>
</g>
</svg>
