<svg version="1.1" id="Layer_1" xmlns="http://www.w3.org/2000/svg" xmlns:xlink="http://www.w3.org/1999/xlink" x="0px" y="0px"
	 width="100%" viewBox="0 0 640 632" enable-background="new 0 0 640 632" xml:space="preserve">
<path fill="#000000" opacity="1.000000" stroke="none" 
	d="
M279.000000,633.000000 
	C186.400146,633.000000 93.800301,633.000000 1.000000,633.000000 
	C1.000000,523.645874 1.000000,414.291595 1.404338,304.479980 
	C3.199888,302.056091 5.123486,300.266388 5.849862,298.079102 
	C6.794233,295.235321 6.787169,292.075623 7.189597,289.051880 
	C7.998617,295.136322 7.931966,301.125214 8.055371,307.110199 
	C8.079782,308.294067 8.783099,310.459137 9.260992,310.483978 
	C13.859206,310.722778 13.969982,313.825043 14.036632,317.176270 
	C14.056657,318.183167 14.539639,319.180847 14.810535,320.182770 
	C15.488045,320.189941 16.165554,320.197144 16.843063,320.204346 
	C21.939161,297.212830 27.035261,274.221344 32.163002,251.087097 
	C33.738926,251.307419 35.676052,251.578232 37.612896,251.849014 
	C36.403511,259.284882 37.196049,264.292145 41.301521,266.993011 
	C48.516739,260.363403 47.885151,250.023773 52.954414,242.227631 
	C58.183544,234.185654 61.528339,224.944916 66.267464,216.550400 
	C71.041321,208.094330 76.297440,199.885925 81.744675,191.841507 
	C87.237579,183.729630 93.058731,175.824402 99.042084,168.064606 
	C105.144356,160.150574 111.619026,152.523682 118.254173,144.373688 
	C119.926712,148.810364 122.569069,149.318451 125.778122,146.651642 
	C135.884766,138.252716 145.530289,129.215149 156.176117,121.568993 
	C171.130905,110.828033 186.425369,100.437607 202.285904,91.106308 
	C232.741394,73.188293 266.852020,66.166901 301.129547,60.103947 
	C306.619019,59.132977 312.317688,59.055038 317.918854,59.064232 
	C330.457367,59.084820 342.972015,58.525757 355.391846,61.812996 
	C364.030090,64.099350 373.277252,62.592510 382.061951,65.875603 
	C391.608276,69.443352 402.040283,70.693382 411.493134,74.447166 
	C426.453979,80.388191 441.526245,86.520912 455.429932,94.521362 
	C469.811981,102.797050 483.616943,112.500717 496.269043,123.235977 
	C508.491364,133.606552 519.786194,145.387070 529.895020,157.841568 
	C539.829956,170.081787 548.114075,183.730362 556.423950,197.192200 
	C560.580994,203.926468 563.573730,211.472610 566.402710,218.914047 
	C572.174805,234.097305 577.797485,249.354599 582.829895,264.793823 
	C585.037231,271.565582 585.969116,278.815857 586.897644,285.924896 
	C587.940857,293.911438 588.606689,301.972229 588.941711,310.021362 
	C589.734131,329.059296 587.847961,347.807831 584.281006,366.602844 
	C580.760742,385.151703 575.557190,403.109955 568.591125,420.478668 
	C563.129089,434.097198 556.325806,447.252777 549.221558,460.118866 
	C540.209839,476.439545 528.675537,491.112457 515.766968,504.507874 
	C506.374725,514.254333 495.955780,523.011292 485.664307,532.251953 
	C484.253052,533.323120 483.272888,534.490417 482.076294,535.359863 
	C457.546509,553.182495 431.501617,568.269897 402.269226,576.877014 
	C386.071289,581.646301 369.507019,585.230469 353.001923,588.868164 
	C346.483398,590.304871 339.677002,590.435364 332.670013,591.094360 
	C331.891937,591.073608 331.445587,591.119080 330.570312,591.094727 
	C327.888885,591.347717 325.629639,591.985413 323.385071,591.937378 
	C314.776184,591.753235 306.151459,590.817566 297.570923,591.150024 
	C284.367371,591.661743 271.747314,588.502197 259.094421,585.829407 
	C233.513962,580.426025 208.875870,572.114502 185.626007,559.964966 
	C184.063873,559.148682 182.350891,558.608093 180.682205,558.011658 
	C177.529282,556.884705 173.863052,556.488342 171.276154,554.601196 
	C157.389038,544.470581 143.074585,534.756287 130.255539,523.379578 
	C117.966087,512.472778 107.140305,499.876923 96.047768,487.680939 
	C91.569672,482.757416 88.110413,476.910492 84.148407,471.512512 
	C82.705704,469.546936 81.161629,467.258698 79.462921,471.392029 
	C78.656189,470.348145 77.745438,469.379486 77.072189,468.267090 
	C66.237694,450.365448 57.600193,431.425293 50.311905,411.834991 
	C49.734207,410.282196 48.215107,409.079681 47.133511,407.714355 
	C46.577103,408.044678 46.020695,408.375031 45.464287,408.705353 
	C46.294804,411.786438 46.998398,414.908661 47.981037,417.940430 
	C50.368595,425.306946 50.420822,425.290009 48.024345,431.896667 
	C35.284992,395.104492 24.545168,358.317810 25.024672,319.096375 
	C24.042793,327.354462 23.340946,335.593597 24.202856,343.665741 
	C25.589102,356.648468 27.998154,369.522430 29.996178,382.439087 
	C30.718235,387.106964 30.173546,392.691284 32.608418,396.182526 
	C35.354176,400.119568 32.836727,404.524017 36.500622,408.652618 
	C40.466835,413.121826 40.893551,420.682037 43.033550,426.835114 
	C45.549324,434.068604 47.875416,441.403778 50.975224,448.387970 
	C53.852600,454.871063 57.640270,460.950165 61.121674,467.615845 
	C61.754948,468.016785 62.293678,468.009003 62.605648,468.444397 
	C59.245327,471.320679 60.011585,467.435303 58.715416,466.441162 
	C57.771397,465.775299 56.945839,465.367798 56.060787,464.609436 
	C47.109299,445.119568 38.217304,425.980591 29.055470,406.260834 
	C28.109945,408.332947 27.522537,409.620270 26.583393,410.799286 
	C25.124805,407.343201 23.913704,404.025665 22.931862,400.641632 
	C20.569929,392.500824 17.721285,384.439453 16.176855,376.139862 
	C14.473347,366.985291 14.204855,357.573029 12.916323,348.328033 
	C12.280915,343.769073 12.965695,338.560883 8.167391,334.568420 
	C7.727643,338.621948 7.184409,342.009460 7.023221,345.415009 
	C6.512478,356.205933 8.145079,366.687775 11.410255,377.001129 
	C12.330055,379.906403 11.434302,383.368958 12.270861,386.320984 
	C16.409857,400.926605 20.850370,415.446777 25.240604,430.353882 
	C25.869404,432.044617 26.441790,433.378662 27.015045,434.712341 
	C29.067829,439.488220 31.120922,444.263977 33.149052,449.296204 
	C33.400810,449.740631 33.677425,449.928650 33.978683,450.437775 
	C35.645996,453.853821 37.288670,456.948761 38.965912,460.392242 
	C39.722950,462.151306 40.445415,463.561890 41.201355,465.325989 
	C44.137791,470.485779 47.040745,475.292084 49.971893,480.424194 
	C50.392529,481.498047 50.784973,482.246124 51.212627,483.329529 
	C52.795555,485.790710 54.343269,487.916595 55.944138,490.398254 
	C76.054436,520.781250 99.879684,547.284363 129.271622,568.942017 
	C129.986099,569.387695 130.440201,569.716309 131.005066,570.321045 
	C131.746735,571.005981 132.377609,571.414734 133.196991,571.912720 
	C133.639023,572.117371 133.884583,572.247803 134.300446,572.675903 
	C135.346344,573.579102 136.214005,574.199646 137.297379,574.909180 
	C137.513092,574.998230 137.962234,575.125244 138.064056,575.394165 
	C138.779251,576.049744 139.392654,576.436462 140.318573,576.982300 
	C153.029419,584.743469 165.267792,592.625610 177.890488,599.834839 
	C184.656769,603.699280 191.922455,606.846313 199.248764,609.538818 
	C212.346344,614.352173 225.660370,618.576538 239.021820,623.333740 
	C239.762924,623.692566 240.366135,623.764771 241.294678,623.907227 
	C242.063004,624.003418 242.505981,624.029419 243.081070,624.338074 
	C243.809402,624.690918 244.405609,624.761108 245.323029,624.904480 
	C246.080338,625.025146 246.516449,625.072571 247.084106,625.400757 
	C247.811111,625.731384 248.406570,625.781250 249.311584,625.903320 
	C250.044250,625.998657 250.467392,626.021851 251.062805,626.354614 
	C252.156754,626.721130 253.078461,626.778015 254.398834,626.917114 
	C262.826111,628.344971 270.854675,629.690674 278.932068,631.362244 
	C278.987244,632.125427 278.993622,632.562683 279.000000,633.000000 
z"/>
<path fill="#FE4439" opacity="1.000000" stroke="none" 
	d="
M485.994629,532.209473 
	C495.955780,523.011292 506.374725,514.254333 515.766968,504.507874 
	C528.675537,491.112457 540.209839,476.439545 549.221558,460.118866 
	C556.325806,447.252777 563.129089,434.097198 568.591125,420.478668 
	C575.557190,403.109955 580.760742,385.151703 584.281006,366.602844 
	C587.847961,347.807831 589.734131,329.059296 588.941711,310.021362 
	C588.606689,301.972229 587.940857,293.911438 586.897644,285.924896 
	C585.969116,278.815857 585.037231,271.565582 582.829895,264.793823 
	C577.797485,249.354599 572.174805,234.097305 566.402710,218.914047 
	C563.573730,211.472610 560.580994,203.926468 556.423950,197.192200 
	C548.114075,183.730362 539.829956,170.081787 529.895020,157.841568 
	C519.786194,145.387070 508.491364,133.606552 496.269043,123.235977 
	C483.616943,112.500717 469.811981,102.797050 455.429932,94.521362 
	C441.526245,86.520912 426.453979,80.388191 411.493134,74.447166 
	C402.040283,70.693382 391.608276,69.443352 382.061951,65.875603 
	C373.277252,62.592510 364.030090,64.099350 355.391846,61.812996 
	C342.972015,58.525757 330.457367,59.084820 317.918854,59.064232 
	C312.317688,59.055038 306.619019,59.132977 301.129547,60.103947 
	C266.852020,66.166901 232.741394,73.188293 202.285904,91.106308 
	C186.425369,100.437607 171.130905,110.828033 156.176117,121.568993 
	C145.530289,129.215149 135.884766,138.252716 125.778122,146.651642 
	C122.569069,149.318451 119.926712,148.810364 118.254173,144.373688 
	C111.619026,152.523682 105.144356,160.150574 99.042084,168.064606 
	C93.058731,175.824402 87.237579,183.729630 81.744675,191.841507 
	C76.297440,199.885925 71.041321,208.094330 66.267464,216.550400 
	C61.528339,224.944916 58.183544,234.185654 52.954414,242.227631 
	C47.885151,250.023773 48.516739,260.363403 41.301521,266.993011 
	C37.196049,264.292145 36.403511,259.284882 37.612896,251.849014 
	C35.676052,251.578232 33.738926,251.307419 32.163002,251.087097 
	C27.035261,274.221344 21.939161,297.212830 16.843063,320.204346 
	C16.165554,320.197144 15.488045,320.189941 14.810535,320.182770 
	C14.539639,319.180847 14.056657,318.183167 14.036632,317.176270 
	C13.969982,313.825043 13.859206,310.722778 9.260992,310.483978 
	C8.783099,310.459137 8.079782,308.294067 8.055371,307.110199 
	C7.931966,301.125214 7.998617,295.136322 7.189597,289.051880 
	C6.787169,292.075623 6.794233,295.235321 5.849862,298.079102 
	C5.123486,300.266388 3.199888,302.056091 1.404338,304.011292 
	C1.000000,289.645782 1.000000,275.291534 1.414836,260.468719 
	C2.215364,259.387146 2.846645,258.812408 2.949016,258.155273 
	C4.055894,251.050217 4.529952,243.798203 6.225586,236.841965 
	C12.114756,212.682053 21.463749,189.743713 32.939396,167.776917 
	C43.555889,147.454712 56.776260,128.616699 72.691483,112.192177 
	C87.955017,96.440193 104.122475,81.345825 121.279373,67.706818 
	C139.197998,53.462261 158.010574,40.095554 180.063339,32.294399 
	C186.835831,29.898636 192.978867,25.771990 199.669327,23.082796 
	C207.048630,20.116726 214.658981,17.667772 222.287201,15.390504 
	C238.968857,10.410480 255.624451,5.299517 273.142731,3.878173 
	C276.153168,3.633922 279.050446,1.994782 282.000000,0.999998 
	C308.687561,1.000000 335.375122,1.000000 362.789917,1.179850 
	C364.678101,1.239799 365.839050,1.119899 367.000000,0.999999 
	C367.444458,1.000000 367.888885,1.000000 368.353638,1.330547 
	C369.602356,2.439439 370.759583,3.716945 372.072266,3.904133 
	C376.299072,4.506869 380.642487,4.373731 384.835510,5.118155 
	C409.675934,9.528301 432.780426,19.296768 456.015259,28.599724 
	C459.976501,30.185751 463.484985,32.869015 467.376068,34.670879 
	C475.777283,38.561260 484.666473,41.546059 492.683350,46.088562 
	C511.289307,56.631016 528.291077,69.520782 543.723938,84.335907 
	C551.498352,91.799149 558.776733,99.789268 566.110413,107.697861 
	C570.749207,112.700325 575.418518,117.740974 579.441833,123.228088 
	C583.080200,128.190201 585.648193,133.922134 589.058105,139.069550 
	C600.096802,155.733215 608.978210,173.463486 615.628296,192.290421 
	C621.302856,208.355286 627.333008,224.333206 632.055542,240.681870 
	C635.110901,251.258759 636.028809,262.446655 638.113831,273.320587 
	C638.313110,274.359985 640.002441,275.113678 641.000000,276.000000 
	C641.000000,276.750000 641.000000,277.500000 640.837769,278.898071 
	C640.783752,281.364075 640.891907,283.182037 641.000000,285.000000 
	C641.000000,286.066681 641.000000,287.133331 640.620239,288.674866 
	C639.497192,290.625305 638.255798,292.054108 638.111938,293.585938 
	C637.788696,297.028992 638.009888,300.523193 637.715454,304.248474 
	C636.947632,306.861053 636.069824,309.220947 636.064941,311.582581 
	C636.030273,328.453369 636.327515,345.333649 633.002075,362.335022 
	C633.001160,363.112579 633.000549,363.556885 632.962402,364.403320 
	C632.605347,366.436676 632.245422,368.061218 631.972412,369.700195 
	C627.771423,394.920135 620.736816,419.318695 610.242798,442.638519 
	C605.406433,453.386078 599.858765,463.812103 594.740906,474.435638 
	C593.669495,476.659821 593.526245,479.426422 592.165161,481.397522 
	C588.390381,486.864105 584.153564,492.010193 580.256165,497.396423 
	C579.935486,497.839569 580.802246,499.141998 580.967834,500.366180 
	C579.484924,502.864105 578.151428,505.041046 576.795471,507.254578 
	C580.334900,508.884155 580.158264,512.038757 576.945435,515.455750 
	C571.184387,521.582764 565.533142,527.813049 559.554565,533.838379 
	C558.639221,531.941345 558.005249,530.206177 556.979919,527.399597 
	C555.056702,529.239929 552.109009,530.826843 552.153931,532.324097 
	C552.212585,534.279358 554.640198,536.163635 555.922974,538.388123 
	C552.882568,541.168762 549.967773,543.639709 546.878784,545.832764 
	C541.619446,538.541321 540.310303,538.374390 534.889099,543.565674 
	C531.444031,546.864624 527.891724,550.067566 524.218567,553.109619 
	C505.461792,568.643494 485.069977,581.704407 463.632843,593.213806 
	C443.897827,603.809448 422.680176,610.584839 401.604614,617.756470 
	C399.330566,618.530273 397.193787,619.879883 394.872559,620.308777 
	C388.950653,621.403015 382.960419,622.127502 376.557800,623.000244 
	C365.084198,624.165894 354.074188,625.857117 343.010223,626.358215 
	C330.274323,626.935059 317.490509,626.505859 304.728088,626.423401 
	C297.820648,626.378784 290.914398,626.146179 283.867340,625.707947 
	C282.151733,625.279419 280.576416,625.141296 278.747681,624.997986 
	C278.325287,624.989563 278.156342,624.986267 277.913879,624.757080 
	C277.225739,624.354187 276.611023,624.177124 275.593872,623.998657 
	C274.118195,623.982910 273.044983,623.968445 271.868652,623.693970 
	C270.844818,623.291748 269.924164,623.149475 269.001648,623.255737 
	C268.999847,623.504395 268.995697,624.001587 268.772095,623.771118 
	C267.364868,622.693726 266.181213,621.846863 264.623169,621.000000 
	C263.500000,621.000000 262.751221,621.000000 261.734772,620.831482 
	C257.975739,620.108643 254.484375,619.554321 250.661667,619.000000 
	C249.888504,619.000000 249.446701,619.000000 248.845398,618.689819 
	C247.706467,617.822021 246.790771,617.044067 245.738144,616.739624 
	C225.303101,610.830322 205.493774,603.363953 186.648926,593.413330 
	C185.357651,592.731445 183.561401,593.005981 181.773560,592.908447 
	C181.547119,592.981201 181.075043,593.039734 181.025848,592.678589 
	C179.649673,591.211670 178.322693,590.105835 176.748322,589.000000 
	C176.500916,589.000000 176.006104,589.000000 175.872192,588.706787 
	C174.825729,587.942383 173.913162,587.471191 173.000305,587.000000 
	C173.000000,587.000000 172.999390,587.000000 172.870697,586.685181 
	C171.163162,585.582642 169.584320,584.794983 168.002777,584.003662 
	C168.000076,584.000000 167.993011,583.997314 167.870422,583.683228 
	C165.832504,582.246033 163.917175,581.122986 162.000916,580.000000 
	C162.000000,580.000000 161.999390,579.997559 161.875702,579.683594 
	C159.835876,578.244812 157.919724,577.119934 155.869598,575.702637 
	C154.824356,574.939270 153.913101,574.468384 152.869354,573.705078 
	C151.827530,572.947144 150.918198,572.481567 149.827698,571.860229 
	C149.412659,571.487488 149.197205,571.253418 148.867462,570.708862 
	C147.823380,569.943542 146.911987,569.471741 145.745453,568.989502 
	C145.320236,568.971802 145.150146,568.964600 144.945770,568.628601 
	C143.938782,567.201538 142.966034,566.103149 141.704987,564.875000 
	C140.614197,564.496033 139.811691,564.246948 138.898956,563.721680 
	C138.193100,562.965881 137.597458,562.486328 136.739960,562.129639 
	C135.763977,562.541748 135.049835,562.830994 134.062836,562.958679 
	C133.472900,562.518311 133.155792,562.239502 132.996780,561.659668 
	C132.448181,559.581665 132.220322,557.293152 130.957092,556.110657 
	C122.808922,548.483826 114.461914,541.067871 106.110008,533.661804 
	C104.542679,532.271973 102.659103,531.238831 100.599838,530.209351 
	C99.341972,530.580505 98.405716,530.783325 97.394226,530.909424 
	C97.319000,530.832764 97.017258,530.527161 97.070900,530.175781 
	C96.462616,528.691284 95.800697,527.558105 95.345535,526.172852 
	C95.681610,523.912109 95.810913,521.903564 96.026947,518.547607 
	C98.317520,520.066040 100.396271,521.053162 101.982056,522.559265 
	C111.615593,531.708740 120.741394,541.433716 130.776428,550.111145 
	C152.821136,569.173462 177.421158,584.349915 204.208435,595.867065 
	C229.915466,606.919800 256.694580,614.203491 284.451813,617.729736 
	C291.178680,618.584412 298.002289,618.677307 304.781433,619.120483 
	C304.891144,618.441162 305.000885,617.761841 305.110596,617.082520 
	C302.850861,616.379150 300.635803,615.423401 298.324005,615.013855 
	C284.729767,612.605652 271.063782,610.574829 257.521576,607.910461 
	C248.877975,606.209839 240.133453,604.354797 231.935226,601.247192 
	C223.922958,598.210083 215.287338,597.571716 207.633881,592.751404 
	C195.866791,585.340271 182.886337,579.878235 170.938950,572.723816 
	C160.534973,566.493591 150.788345,559.148804 140.928635,552.050110 
	C139.830414,551.259460 139.891815,548.858154 139.415436,547.203796 
	C140.972061,547.013794 142.994476,546.093445 144.014786,546.744263 
	C157.322708,555.232239 170.292908,564.261353 183.735626,572.523804 
	C204.624313,585.362854 227.429810,593.899231 251.097473,599.813171 
	C279.245605,606.846741 307.941986,608.381714 336.836151,605.920227 
	C341.606232,605.513855 346.341248,604.695618 351.092468,604.067749 
	C351.051971,603.473511 351.011444,602.879333 350.970947,602.285095 
	C342.458679,598.244690 332.902313,605.667786 323.813049,600.814941 
	C329.532593,599.971741 334.540070,598.952026 339.596649,598.548523 
	C349.179474,597.783936 358.901398,598.110413 368.370544,596.686768 
	C408.942139,590.586670 446.759583,577.143066 480.206268,552.810974 
	C487.456390,547.536560 494.766083,542.204590 501.268402,536.072144 
	C512.833923,525.164368 523.912170,513.729126 534.933533,502.263916 
	C537.217407,499.888062 538.364136,496.419098 540.034973,493.453949 
	C539.555481,493.165344 539.075989,492.876709 538.596497,492.588104 
	C537.780396,493.311798 536.937500,494.007629 536.152222,494.763306 
	C523.138611,507.287018 510.941284,520.829346 496.899048,532.066467 
	C482.546997,543.551575 466.864746,553.607544 450.904419,562.794373 
	C427.634521,576.188477 402.090515,583.969604 375.898285,589.625671 
	C374.117889,590.010193 372.624451,591.723694 370.668030,592.893677 
	C369.892303,592.924927 369.446136,592.881592 368.844666,592.560730 
	C367.344574,592.130676 365.990692,591.794556 364.656769,591.860718 
	C360.887115,592.047852 357.125671,592.400024 353.361023,592.687134 
	C353.317688,592.259949 353.274353,591.832764 353.231018,591.405518 
	C355.766357,590.942261 358.290070,590.398987 360.838837,590.028015 
	C393.986328,585.203064 424.849396,573.862549 453.746063,557.118835 
	C462.027649,552.320251 469.997589,546.947998 477.860291,541.479187 
	C481.222504,539.140564 485.960663,537.622314 485.994629,532.209473 
M356.271729,601.924438 
	C356.095215,601.954956 355.918701,601.985474 355.742188,602.016052 
	C355.915619,602.058838 356.089081,602.101624 356.271729,601.924438 
z"/>
<path fill="#000000" opacity="1.000000" stroke="none" 
	d="
M641.000000,275.531342 
	C640.002441,275.113678 638.313110,274.359985 638.113831,273.320587 
	C636.028809,262.446655 635.110901,251.258759 632.055542,240.681870 
	C627.333008,224.333206 621.302856,208.355286 615.628296,192.290421 
	C608.978210,173.463486 600.096802,155.733215 589.058105,139.069550 
	C585.648193,133.922134 583.080200,128.190201 579.441833,123.228088 
	C575.418518,117.740974 570.749207,112.700325 566.110413,107.697861 
	C558.776733,99.789268 551.498352,91.799149 543.723938,84.335907 
	C528.291077,69.520782 511.289307,56.631016 492.683350,46.088562 
	C484.666473,41.546059 475.777283,38.561260 467.376068,34.670879 
	C463.484985,32.869015 459.976501,30.185751 456.015259,28.599724 
	C432.780426,19.296768 409.675934,9.528301 384.835510,5.118155 
	C380.642487,4.373731 376.299072,4.506869 372.072266,3.904133 
	C370.759583,3.716945 369.602356,2.439439 368.686981,1.330547 
	C459.594086,1.000000 550.188171,1.000000 641.000000,1.000000 
	C641.000000,92.354111 641.000000,183.708405 641.000000,275.531342 
z"/>
<path fill="#000000" opacity="1.000000" stroke="none" 
	d="
M281.531342,0.999998 
	C279.050446,1.994782 276.153168,3.633922 273.142731,3.878173 
	C255.624451,5.299517 238.968857,10.410480 222.287201,15.390504 
	C214.658981,17.667772 207.048630,20.116726 199.669327,23.082796 
	C192.978867,25.771990 186.835831,29.898636 180.063339,32.294399 
	C158.010574,40.095554 139.197998,53.462261 121.279373,67.706818 
	C104.122475,81.345825 87.955017,96.440193 72.691483,112.192177 
	C56.776260,128.616699 43.555889,147.454712 32.939396,167.776917 
	C21.463749,189.743713 12.114756,212.682053 6.225586,236.841965 
	C4.529952,243.798203 4.055894,251.050217 2.949016,258.155273 
	C2.846645,258.812408 2.215364,259.387146 1.414836,260.000061 
	C1.000000,173.736649 1.000000,87.473312 1.000000,1.000000 
	C94.354126,1.000000 187.708405,1.000000 281.531342,0.999998 
z"/>
<path fill="#000000" opacity="1.000000" stroke="none" 
	d="
M547.052979,546.110657 
	C549.967773,543.639709 552.882568,541.168762 556.225098,538.232605 
	C557.713867,536.511658 558.774963,535.255920 559.835999,534.000183 
	C565.533142,527.813049 571.184387,521.582764 576.945435,515.455750 
	C580.158264,512.038757 580.334900,508.884155 576.795471,507.254578 
	C578.151428,505.041046 579.484924,502.864105 581.316467,500.354675 
	C582.616211,500.675842 583.417969,501.329468 584.575562,502.273224 
	C588.368774,497.605499 592.513550,493.403107 595.570374,488.519714 
	C599.515442,482.217255 602.873108,475.499847 605.980408,468.730133 
	C612.163452,455.259766 618.522644,441.832397 623.858582,428.020111 
	C631.326416,408.689453 636.104126,388.572876 638.903687,367.669952 
	C638.926025,366.890533 638.880310,366.443176 638.920288,365.586426 
	C639.670654,364.784698 640.335327,364.392365 641.000000,364.000000 
	C641.000000,453.592194 641.000000,543.184387 641.000000,633.000000 
	C555.312561,633.000000 469.624939,633.000000 383.456573,632.577881 
	C383.773010,631.438599 384.476349,630.264648 385.382599,630.078552 
	C391.229767,628.877197 397.121338,627.891663 403.359222,626.904663 
	C404.494354,626.353577 405.268616,625.733154 406.474854,625.065063 
	C412.420898,623.733887 418.075134,622.864990 423.413147,621.060669 
	C429.898346,618.868469 436.087250,615.813293 442.458832,613.267761 
	C449.512726,610.449585 456.778198,608.111938 463.666992,604.945862 
	C468.718750,602.624146 473.237335,599.169434 478.130310,596.467285 
	C482.771790,593.903992 487.849854,592.062805 492.279175,589.197876 
	C501.893219,582.979370 511.286163,576.409302 520.622559,569.776245 
	C524.321289,567.148438 527.629761,563.971252 531.410034,560.921021 
	C532.807129,559.811523 533.910156,558.825195 535.276123,557.863770 
	C535.731934,557.605530 535.924805,557.322327 536.086670,557.033813 
	C536.055725,557.028625 536.086792,557.083008 536.391907,556.946045 
	C540.148987,553.242981 543.601013,549.676819 547.052979,546.110657 
z"/>
<path fill="#FF4838" opacity="1.000000" stroke="none" 
	d="
M531.115906,561.044250 
	C527.629761,563.971252 524.321289,567.148438 520.622559,569.776245 
	C511.286163,576.409302 501.893219,582.979370 492.279175,589.197876 
	C487.849854,592.062805 482.771790,593.903992 478.130310,596.467285 
	C473.237335,599.169434 468.718750,602.624146 463.666992,604.945862 
	C456.778198,608.111938 449.512726,610.449585 442.458832,613.267761 
	C436.087250,615.813293 429.898346,618.868469 423.413147,621.060669 
	C418.075134,622.864990 412.420898,623.733887 406.352905,624.787109 
	C402.504639,622.414368 403.395233,625.416199 402.998322,626.835327 
	C397.121338,627.891663 391.229767,628.877197 385.382599,630.078552 
	C384.476349,630.264648 383.773010,631.438599 382.987915,632.577881 
	C380.958344,633.000000 378.916656,633.000000 376.320190,632.928101 
	C375.488190,632.764587 375.233093,632.812500 375.000000,633.000000 
	C371.638702,633.000000 368.277435,633.000000 364.367371,632.684814 
	C361.390381,628.068420 359.818268,631.670227 358.000000,633.000000 
	C358.000000,633.000000 357.500000,633.000000 357.020630,632.839966 
	C355.694183,632.786621 354.847076,632.893311 354.000000,633.000000 
	C332.645782,633.000000 311.291534,633.000000 289.377319,632.778687 
	C287.915497,632.399414 287.013672,632.241455 285.698242,632.059814 
	C284.180328,632.001343 283.076019,631.966492 281.861389,631.660156 
	C281.140442,630.934021 280.529816,630.479431 279.701782,630.142334 
	C279.226318,630.473938 279.025940,630.732849 278.883270,631.036377 
	C270.854675,629.690674 262.826111,628.344971 254.283417,626.677856 
	C252.809708,626.252563 251.850113,626.148804 250.890533,626.044983 
	C250.467392,626.021851 250.044250,625.998657 249.221222,625.687500 
	C248.198410,625.306396 247.575485,625.213257 246.952560,625.119995 
	C246.516449,625.072571 246.080338,625.025146 245.234009,624.687134 
	C244.198868,624.282837 243.573914,624.169067 242.948975,624.055298 
	C242.505981,624.029419 242.063004,624.003418 241.055542,623.758301 
	C239.955338,623.375183 239.419632,623.211121 238.883911,623.047119 
	C225.660370,618.576538 212.346344,614.352173 199.248764,609.538818 
	C191.922455,606.846313 184.656769,603.699280 177.890488,599.834839 
	C165.267792,592.625610 153.029419,584.743469 140.255356,576.681396 
	C140.616592,574.936523 141.183426,573.504333 142.134918,572.405090 
	C143.248535,571.118591 144.697266,570.122253 146.000610,569.000000 
	C146.911987,569.471741 147.823380,569.943542 148.663101,570.895691 
	C146.812241,573.893921 146.812241,573.893921 150.008865,574.970032 
	C150.008865,573.954346 150.008865,572.985168 150.008865,572.015991 
	C150.918198,572.481567 151.827530,572.947144 152.868439,573.706299 
	C153.000000,574.000000 152.999390,574.002136 152.822296,574.267334 
	C152.781494,575.671082 152.917786,576.809570 153.054047,577.948059 
	C154.034744,577.300293 155.015427,576.652588 155.997925,576.002441 
	C155.999725,576.000000 156.003555,575.995117 156.003571,575.995117 
	C157.919724,577.119934 159.835876,578.244812 161.554520,579.622192 
	C160.119156,580.176819 158.881302,580.478943 157.643463,580.781006 
	C158.254639,581.612244 158.865799,582.443420 159.476959,583.274597 
	C160.318573,582.183044 161.160187,581.091492 162.001831,580.000000 
	C163.917175,581.122986 165.832504,582.246033 167.636414,583.800415 
	C166.960297,584.866638 166.395584,585.501587 165.830887,586.136536 
	C166.236465,586.344971 166.642044,586.553345 167.047607,586.761780 
	C167.366898,585.843628 167.686188,584.925476 168.005478,584.007324 
	C169.584320,584.794983 171.163162,585.582642 172.709351,586.788269 
	C172.569778,587.525146 172.462860,587.844055 172.355942,588.162964 
	C172.570831,587.775330 172.785721,587.387634 173.000610,587.000000 
	C173.913162,587.471191 174.825729,587.942383 175.808258,588.923828 
	C175.032379,591.981750 175.032379,591.981750 178.608002,592.743835 
	C178.018951,591.376038 177.507339,590.187988 176.995728,589.000000 
	C178.322693,590.105835 179.649673,591.211670 180.982544,593.035645 
	C182.296677,594.538208 183.604919,595.322693 185.089142,596.415405 
	C189.226791,598.552612 193.188431,600.381592 197.305344,602.302246 
	C197.644852,601.977051 197.829102,601.560181 197.649628,601.067993 
	C193.429321,599.106079 189.572739,597.219543 185.494247,595.091675 
	C184.181564,594.178833 183.090775,593.507263 181.999985,592.835754 
	C183.561401,593.005981 185.357651,592.731445 186.648926,593.413330 
	C205.493774,603.363953 225.303101,610.830322 245.738144,616.739624 
	C246.790771,617.044067 247.706467,617.822021 248.928314,618.909668 
	C249.778152,619.293213 250.385574,619.146606 250.993011,619.000000 
	C254.484375,619.554321 257.975739,620.108643 261.550354,620.993591 
	C261.213898,625.337036 263.931824,623.265991 265.809631,623.867188 
	C265.433746,622.539978 265.215637,621.770020 264.997559,621.000000 
	C266.181213,621.846863 267.364868,622.693726 269.083679,623.969360 
	C272.746246,624.599854 275.873657,624.801514 279.001099,625.003113 
	C280.576416,625.141296 282.151733,625.279419 284.113464,625.999573 
	C285.210236,626.983032 285.905182,627.703735 286.633331,627.739075 
	C302.342560,628.500549 318.053955,629.224548 333.769409,629.842285 
	C336.055084,629.932129 338.365143,629.459717 340.661133,629.220337 
	C352.324738,628.004944 363.991089,626.812500 375.638550,625.457886 
	C376.179535,625.395020 376.548492,623.853088 376.997559,623.000000 
	C382.960419,622.127502 388.950653,621.403015 394.872559,620.308777 
	C397.193787,619.879883 399.330566,618.530273 401.604614,617.756470 
	C422.680176,610.584839 443.897827,603.809448 463.632843,593.213806 
	C485.069977,581.704407 505.461792,568.643494 524.218567,553.109619 
	C527.891724,550.067566 531.444031,546.864624 534.889099,543.565674 
	C540.310303,538.374390 541.619446,538.541321 546.878784,545.832886 
	C543.601013,549.676819 540.148987,553.242981 536.342529,556.640747 
	C534.972107,556.336304 533.956177,556.200256 532.940308,556.064209 
	C532.768005,557.883850 527.386902,557.795349 531.115906,561.044250 
M468.800415,598.995178 
	C471.778412,597.504211 474.756409,596.013245 477.734375,594.522278 
	C477.477325,594.024780 477.220276,593.527344 476.963226,593.029846 
	C473.752289,594.783264 470.541321,596.536682 466.785797,598.662476 
	C465.642700,599.197632 464.499634,599.732788 462.748291,600.684875 
	C455.605774,603.794128 448.533264,607.078674 441.302429,609.966797 
	C432.902588,613.321777 424.363831,616.328979 415.199921,619.742554 
	C416.467010,619.879639 417.025360,620.117737 417.423157,619.957458 
	C432.984589,613.687805 448.531342,607.381836 464.752899,601.002930 
	C465.859650,600.362000 466.966400,599.721069 468.800415,598.995178 
M206.356064,604.896729 
	C205.946747,604.986694 205.537430,605.076660 205.128113,605.166626 
	C205.315094,605.384094 205.585907,605.815735 205.674225,605.781128 
	C206.015533,605.647522 206.298599,605.365173 206.356064,604.896729 
M217.251236,610.150146 
	C217.103165,610.042847 216.955093,609.935486 216.807022,609.828186 
	C216.900299,609.984802 216.993591,610.141418 217.251236,610.150146 
M232.239609,615.139282 
	C232.091690,615.031555 231.943771,614.923889 231.795822,614.816223 
	C231.888992,614.973022 231.982147,615.129883 232.239609,615.139282 
M241.854065,618.240662 
	C241.960480,618.093750 242.066895,617.946838 242.173309,617.799927 
	C242.017822,617.892334 241.862335,617.984802 241.854065,618.240662 
M281.502289,626.525391 
	C281.502289,626.525391 281.488708,626.486572 281.502289,626.525391 
M480.475189,590.502563 
	C480.475189,590.502563 480.513580,590.489441 480.475189,590.502563 
z"/>
<path fill="#FF4D3B" opacity="1.000000" stroke="none" 
	d="
M641.000000,363.666687 
	C640.335327,364.392365 639.670654,364.784698 638.660645,365.702698 
	C637.880859,366.819275 637.446533,367.410248 636.811890,367.663666 
	C636.457336,365.860107 636.104187,364.383881 636.179077,362.929688 
	C637.082642,345.383667 638.093567,327.843018 638.941284,310.294434 
	C639.041748,308.214996 638.339600,306.096802 638.009521,303.996552 
	C638.009888,300.523193 637.788696,297.028992 638.111938,293.585938 
	C638.255798,292.054108 639.497192,290.625305 640.620239,289.074860 
	C641.000000,291.041656 641.000000,293.083344 640.792053,295.919495 
	C640.460876,311.874176 640.328491,327.034332 640.248230,342.194763 
	C640.245056,342.795166 640.738159,343.398193 641.000000,344.000000 
	C641.000000,348.356903 641.000000,352.713806 640.785034,357.768951 
	C640.713440,359.644806 640.856750,360.822388 641.000000,362.000000 
	C641.000000,362.444458 641.000000,362.888885 641.000000,363.666687 
z"/>
<path fill="#FE4439" opacity="1.000000" stroke="none" 
	d="
M641.000000,343.531342 
	C640.738159,343.398193 640.245056,342.795166 640.248230,342.194763 
	C640.328491,327.034332 640.460876,311.874176 640.792053,296.356995 
	C641.000000,311.687561 641.000000,327.375122 641.000000,343.531342 
z"/>
<path fill="#FF4538" opacity="1.000000" stroke="none" 
	d="
M358.428467,633.000000 
	C359.818268,631.670227 361.390381,628.068420 363.909302,632.684814 
	C362.285645,633.000000 360.571289,633.000000 358.428467,633.000000 
z"/>
<path fill="#FF6A6A" opacity="1.000000" stroke="none" 
	d="
M641.000000,284.571533 
	C640.891907,283.182037 640.783752,281.364075 640.837769,279.273071 
	C641.000000,280.714355 641.000000,282.428711 641.000000,284.571533 
z"/>
<path fill="#FF4D3B" opacity="1.000000" stroke="none" 
	d="
M281.971710,631.931641 
	C283.076019,631.966492 284.180328,632.001343 285.665680,632.288086 
	C286.046722,632.540100 286.000000,633.000000 286.000000,633.000000 
	C284.611115,633.000000 283.222198,633.000000 281.408936,632.753113 
	C280.984589,632.506226 280.971588,632.012329 281.221741,631.993774 
	C281.638489,631.960693 281.805084,631.946167 281.971710,631.931641 
z"/>
<path fill="#FF6A6A" opacity="1.000000" stroke="none" 
	d="
M641.000000,361.600006 
	C640.856750,360.822388 640.713440,359.644806 640.785034,358.233582 
	C641.000000,359.066681 641.000000,360.133331 641.000000,361.600006 
z"/>
<path fill="#FF0000" opacity="1.000000" stroke="none" 
	d="
M286.375000,633.000000 
	C286.000000,633.000000 286.046722,632.540100 286.079285,632.311768 
	C287.013672,632.241455 287.915497,632.399414 288.908630,632.778687 
	C288.250000,633.000000 287.500000,633.000000 286.375000,633.000000 
z"/>
<path fill="#FF4D3B" opacity="1.000000" stroke="none" 
	d="
M366.600006,0.999999 
	C365.839050,1.119899 364.678101,1.239799 363.258575,1.179850 
	C364.066681,1.000000 365.133331,1.000000 366.600006,0.999999 
z"/>
<path fill="#FF0000" opacity="1.000000" stroke="none" 
	d="
M280.971588,632.012329 
	C280.971588,632.012329 280.984589,632.506226 280.992310,632.753113 
	C280.555573,633.000000 280.111115,633.000000 279.333344,633.000000 
	C278.993622,632.562683 278.987244,632.125427 278.932068,631.362244 
	C279.025940,630.732849 279.226318,630.473938 279.796204,630.411987 
	C280.395844,631.046936 280.683716,631.529602 280.971588,632.012329 
z"/>
<path fill="#FF4538" opacity="1.000000" stroke="none" 
	d="
M354.375000,633.000000 
	C354.847076,632.893311 355.694183,632.786621 356.770630,632.839966 
	C356.250000,633.000000 355.500000,633.000000 354.375000,633.000000 
z"/>
<path fill="#FE4439" opacity="1.000000" stroke="none" 
	d="
M375.250000,633.000000 
	C375.233093,632.812500 375.488190,632.764587 375.882690,632.928101 
	C376.000000,633.000000 375.500000,633.000000 375.250000,633.000000 
z"/>
<path fill="#FE4437" opacity="1.000000" stroke="none" 
	d="
M370.997559,592.819092 
	C372.624451,591.723694 374.117889,590.010193 375.898285,589.625671 
	C402.090515,583.969604 427.634521,576.188477 450.904419,562.794373 
	C466.864746,553.607544 482.546997,543.551575 496.899048,532.066467 
	C510.941284,520.829346 523.138611,507.287018 536.152222,494.763306 
	C536.937500,494.007629 537.780396,493.311798 538.596497,492.588104 
	C539.075989,492.876709 539.555481,493.165344 540.034973,493.453949 
	C538.364136,496.419098 537.217407,499.888062 534.933533,502.263916 
	C523.912170,513.729126 512.833923,525.164368 501.268402,536.072144 
	C494.766083,542.204590 487.456390,547.536560 480.206268,552.810974 
	C446.759583,577.143066 408.942139,590.586670 368.370544,596.686768 
	C358.901398,598.110413 349.179474,597.783936 339.596649,598.548523 
	C334.540070,598.952026 329.532593,599.971741 323.813049,600.814941 
	C332.902313,605.667786 342.458679,598.244690 350.970947,602.285095 
	C351.011444,602.879333 351.051971,603.473511 351.092468,604.067749 
	C346.341248,604.695618 341.606232,605.513855 336.836151,605.920227 
	C307.941986,608.381714 279.245605,606.846741 251.097473,599.813171 
	C227.429810,593.899231 204.624313,585.362854 183.735626,572.523804 
	C170.292908,564.261353 157.322708,555.232239 144.014786,546.744263 
	C142.994476,546.093445 140.972061,547.013794 139.415436,547.203796 
	C139.891815,548.858154 139.830414,551.259460 140.928635,552.050110 
	C150.788345,559.148804 160.534973,566.493591 170.938950,572.723816 
	C182.886337,579.878235 195.866791,585.340271 207.633881,592.751404 
	C215.287338,597.571716 223.922958,598.210083 231.935226,601.247192 
	C240.133453,604.354797 248.877975,606.209839 257.521576,607.910461 
	C271.063782,610.574829 284.729767,612.605652 298.324005,615.013855 
	C300.635803,615.423401 302.850861,616.379150 305.110596,617.082520 
	C305.000885,617.761841 304.891144,618.441162 304.781433,619.120483 
	C298.002289,618.677307 291.178680,618.584412 284.451813,617.729736 
	C256.694580,614.203491 229.915466,606.919800 204.208435,595.867065 
	C177.421158,584.349915 152.821136,569.173462 130.776428,550.111145 
	C120.741394,541.433716 111.615593,531.708740 101.982056,522.559265 
	C100.396271,521.053162 98.317520,520.066040 96.026947,518.547607 
	C95.810913,521.903564 95.681610,523.912109 95.178001,526.131226 
	C94.803696,526.341736 94.461151,526.323853 94.227829,526.027466 
	C92.632996,524.250061 91.271492,522.769104 90.002617,521.064575 
	C89.407127,520.098755 88.719009,519.356445 87.787186,518.387695 
	C86.539368,517.281982 85.535240,516.402771 84.693367,515.225281 
	C83.548035,513.486267 82.240456,512.045593 80.953354,510.268433 
	C80.065224,508.916870 79.156616,507.901825 77.986984,506.694977 
	C77.188995,506.140778 76.652031,505.778381 76.172775,505.211121 
	C75.518921,504.074768 74.807365,503.143280 73.964806,501.988892 
	C73.747459,501.616791 73.661110,501.467621 73.647446,501.084595 
	C73.188057,500.171692 72.655983,499.492584 71.833344,498.618835 
	C67.648857,497.402130 66.821487,494.259369 66.266083,490.536621 
	C65.559082,488.847870 64.915031,487.507477 63.887848,486.110535 
	C59.090336,483.801422 57.608395,487.146667 55.890984,490.042450 
	C54.343269,487.916595 52.795555,485.790710 51.525352,483.221588 
	C52.253845,481.284363 52.704826,479.790375 53.155804,478.296417 
	C52.085102,478.897064 51.014404,479.497711 49.943703,480.098358 
	C47.040745,475.292084 44.137791,470.485779 41.475521,465.230896 
	C42.190819,464.813354 42.925522,464.660095 43.098854,464.904633 
	C44.472366,466.842712 46.100559,469.236206 48.358398,466.801880 
	C49.261791,465.827911 48.110603,462.948303 48.087334,460.723999 
	C47.341793,457.727722 46.403564,454.943573 45.432487,451.841553 
	C44.580875,450.609375 43.762112,449.695099 42.912689,448.499634 
	C42.446175,447.563538 42.010319,446.908600 41.574463,446.253662 
	C41.376114,447.485413 41.177765,448.717163 41.140877,450.173065 
	C41.535881,451.263611 41.769424,452.129974 41.721344,453.146179 
	C40.603600,455.545258 39.767475,457.794495 38.931347,460.043732 
	C37.288670,456.948761 35.645996,453.853821 33.865295,450.246643 
	C33.565289,449.484955 33.380833,449.253418 33.173904,449.039764 
	C31.120922,444.263977 29.067829,439.488220 27.015045,434.712341 
	C26.441790,433.378662 25.869404,432.044617 25.571968,430.389526 
	C28.381212,430.649963 30.915117,431.231628 33.408249,432.036987 
	C33.687897,432.398560 34.008312,432.536407 34.328720,432.674286 
	C34.203514,431.869568 34.078308,431.064850 33.648560,430.094452 
	C31.894064,427.329773 30.444105,424.730743 29.241074,422.034363 
	C29.352804,421.259979 29.217609,420.582977 29.179867,419.700867 
	C29.508572,419.105316 29.739826,418.714783 30.142509,418.091797 
	C29.686289,417.210571 29.058641,416.561798 28.343008,415.588348 
	C28.164076,414.824554 28.073130,414.385437 27.976355,413.644592 
	C27.680517,412.646118 27.390509,411.949371 27.058876,411.166473 
	C27.017250,411.080353 26.935141,410.907593 26.935135,410.907593 
	C27.522537,409.620270 28.109945,408.332947 29.055470,406.260834 
	C38.217304,425.980591 47.109299,445.119568 56.104713,464.925262 
	C57.083385,465.961151 57.958633,466.330353 58.833878,466.699554 
	C60.011585,467.435303 59.245327,471.320679 62.571945,468.297150 
	C62.185715,467.540222 61.606426,467.373657 61.027138,467.207123 
	C57.640270,460.950165 53.852600,454.871063 50.975224,448.387970 
	C47.875416,441.403778 45.549324,434.068604 43.033550,426.835114 
	C40.893551,420.682037 40.466835,413.121826 36.500622,408.652618 
	C32.836727,404.524017 35.354176,400.119568 32.608418,396.182526 
	C30.173546,392.691284 30.718235,387.106964 29.996178,382.439087 
	C27.998154,369.522430 25.589102,356.648468 24.202856,343.665741 
	C23.340946,335.593597 24.042793,327.354462 25.024672,319.096375 
	C24.545168,358.317810 35.284992,395.104492 48.024345,431.896667 
	C50.420822,425.290009 50.368595,425.306946 47.981037,417.940430 
	C46.998398,414.908661 46.294804,411.786438 45.464287,408.705353 
	C46.020695,408.375031 46.577103,408.044678 47.133511,407.714355 
	C48.215107,409.079681 49.734207,410.282196 50.311905,411.834991 
	C57.600193,431.425293 66.237694,450.365448 77.072189,468.267090 
	C77.745438,469.379486 78.656189,470.348145 79.462921,471.392029 
	C81.161629,467.258698 82.705704,469.546936 84.148407,471.512512 
	C88.110413,476.910492 91.569672,482.757416 96.047768,487.680939 
	C107.140305,499.876923 117.966087,512.472778 130.255539,523.379578 
	C143.074585,534.756287 157.389038,544.470581 171.276154,554.601196 
	C173.863052,556.488342 177.529282,556.884705 180.682205,558.011658 
	C182.350891,558.608093 184.063873,559.148682 185.626007,559.964966 
	C208.875870,572.114502 233.513962,580.426025 259.094421,585.829407 
	C271.747314,588.502197 284.367371,591.661743 297.570923,591.150024 
	C306.151459,590.817566 314.776184,591.753235 323.385071,591.937378 
	C325.629639,591.985413 327.888885,591.347717 330.505676,591.418457 
	C331.585632,595.504028 332.116608,595.696411 336.745117,593.944092 
	C335.495911,593.018066 334.248810,592.089355 333.001709,591.160522 
	C339.677002,590.435364 346.483398,590.304871 353.001923,588.868164 
	C369.507019,585.230469 386.071289,581.646301 402.269226,576.877014 
	C431.501617,568.269897 457.546509,553.182495 482.076294,535.359863 
	C483.272888,534.490417 484.253052,533.323120 485.664307,532.251953 
	C485.960663,537.622314 481.222504,539.140564 477.860291,541.479187 
	C469.997589,546.947998 462.027649,552.320251 453.746063,557.118835 
	C424.849396,573.862549 393.986328,585.203064 360.838837,590.028015 
	C358.290070,590.398987 355.766357,590.942261 353.231018,591.405518 
	C353.274353,591.832764 353.317688,592.259949 353.361023,592.687134 
	C357.125671,592.400024 360.887115,592.047852 364.656769,591.860718 
	C365.990692,591.794556 367.344574,592.130676 368.436127,592.632507 
	C365.472229,593.468140 362.761566,593.954346 360.050903,594.440613 
	C360.158020,594.963501 360.265106,595.486389 360.372223,596.009277 
	C375.277069,593.003784 390.181946,589.998291 405.086823,586.992737 
	C404.951630,586.322754 404.816437,585.652771 404.681274,584.982788 
	C393.453369,587.594910 382.225464,590.207031 370.997559,592.819092 
M71.986992,487.530090 
	C72.332527,488.307800 72.678070,489.085541 73.156677,490.386780 
	C73.597939,491.025787 74.039207,491.664825 74.480469,492.303833 
	C74.872047,492.121704 75.263618,491.939545 75.655197,491.757385 
	C75.137421,490.632385 74.619644,489.507385 73.564354,488.015930 
	C73.052444,487.663269 72.540535,487.310608 72.026634,486.291992 
	C71.363113,485.510284 70.699593,484.728607 70.037773,483.323700 
	C70.000008,482.909729 69.962242,482.495758 69.783791,481.470825 
	C69.140060,480.651917 68.496330,479.832977 67.290863,478.740540 
	C66.871239,478.790222 66.451614,478.839905 66.031998,478.889557 
	C66.700966,479.592804 67.369926,480.296051 68.001686,480.914246 
	C68.001686,480.914246 67.916359,480.950806 67.961830,481.645477 
	C68.684853,482.383087 69.407883,483.120728 69.994232,484.564636 
	C70.704231,485.333130 71.414230,486.101624 71.986992,487.530090 
M63.004585,472.265228 
	C62.552322,471.648102 62.100060,471.030975 61.647800,470.413849 
	C61.461361,470.554565 61.274925,470.695312 61.088490,470.836029 
	C61.413422,471.524658 61.738354,472.213257 61.758240,473.379364 
	C61.754978,475.579041 62.072323,477.451965 65.083511,475.826630 
	C64.377869,474.853394 63.672230,473.880188 62.961277,473.033539 
	C62.961277,473.033539 63.087776,473.039520 63.004585,472.265228 
M38.489548,441.551483 
	C38.603436,441.356842 38.717319,441.162201 39.289913,440.590393 
	C38.499592,439.503662 37.709267,438.416931 36.910202,436.931244 
	C36.793163,436.704163 36.676125,436.477051 36.559093,436.249969 
	C36.457809,436.326080 36.263412,436.461487 36.268677,436.469757 
	C36.463642,436.775848 36.677086,437.070160 36.828388,438.085052 
	C36.692337,439.016541 36.556286,439.948059 36.422878,441.371063 
	C36.540195,441.690247 36.735622,441.950928 37.009518,442.675232 
	C37.204086,442.986084 37.398655,443.296936 37.593224,443.607788 
	C37.724422,443.073273 37.855625,442.538788 38.489548,441.551483 
M217.695496,585.220703 
	C217.060516,585.168823 216.425552,585.116943 215.790573,585.065125 
	C242.969238,596.934143 271.180176,603.829773 300.867981,603.836792 
	C293.949738,602.777710 286.915924,602.260193 280.036835,600.937622 
	C265.532471,598.149048 251.058823,595.154846 236.675873,591.802002 
	C230.403900,590.339966 224.386002,587.788025 217.695496,585.220703 
M286.891968,595.881897 
	C276.952484,594.176453 267.013000,592.470947 257.073547,590.765503 
	C280.884491,598.353210 305.266937,599.506409 329.891571,597.655518 
	C329.902130,597.094116 329.912659,596.532654 329.923218,595.971252 
	C315.883484,595.971252 301.843750,595.971252 286.891968,595.881897 
M343.308044,593.241455 
	C344.765198,593.385010 346.222351,593.528564 347.679504,593.672119 
	C347.665985,593.162354 347.652435,592.652527 347.638916,592.142700 
	C346.205170,592.326843 344.771423,592.510925 343.308044,593.241455 
M319.902771,601.247253 
	C319.477814,600.952454 319.066528,600.630981 318.610260,600.397278 
	C318.554688,600.368713 318.257599,600.811707 318.072418,601.036133 
	C318.584747,601.212097 319.097107,601.388062 319.902771,601.247253 
M56.562729,479.276886 
	C57.343498,479.125183 58.124268,478.973450 58.905025,478.821716 
	C58.697330,478.447998 58.489635,478.074249 58.281956,477.700500 
	C57.674801,478.051605 57.067642,478.402710 56.562729,479.276886 
M54.924278,470.361542 
	C54.326443,470.630249 53.728607,470.898987 53.130772,471.167694 
	C53.281990,471.403259 53.433205,471.638824 53.584423,471.874390 
	C54.137871,471.480347 54.691319,471.086304 54.924278,470.361542 
M34.502106,444.456360 
	C34.375916,444.774170 34.249722,445.091980 34.123528,445.409790 
	C34.265503,445.450562 34.527557,445.537018 34.531979,445.525421 
	C34.652988,445.207367 34.747730,444.879303 34.502106,444.456360 
M114.857544,529.240906 
	C114.963181,529.095398 115.068810,528.949829 115.174454,528.804321 
	C115.020302,528.895874 114.866150,528.987427 114.857544,529.240906 
M59.620823,482.169495 
	C59.804432,481.887726 59.988041,481.605927 60.171646,481.324158 
	C59.911072,481.244415 59.650497,481.164673 59.389912,481.084930 
	C59.342678,481.410370 59.295444,481.735809 59.620823,482.169495 
M50.240921,474.142517 
	C50.095394,474.036835 49.949871,473.931152 49.804329,473.825500 
	C49.895863,473.979675 49.987396,474.133881 50.240921,474.142517 
M99.728218,516.075562 
	C99.904785,516.044983 100.081352,516.014465 100.257912,515.983887 
	C100.084427,515.941101 99.910942,515.898315 99.728218,516.075562 
M136.857437,542.240906 
	C136.963150,542.095337 137.068848,541.949829 137.174576,541.804260 
	C137.020355,541.895813 136.866135,541.987366 136.857437,542.240906 
M32.240948,438.142578 
	C32.095348,438.036865 31.949749,437.931152 31.804132,437.825470 
	C31.895725,437.979706 31.987320,438.133972 32.240948,438.142578 
z"/>
<path fill="#FF4538" opacity="1.000000" stroke="none" 
	d="
M89.909988,521.288086 
	C91.271492,522.769104 92.632996,524.250061 94.132355,526.350464 
	C95.185898,528.155579 96.101585,529.341370 97.017265,530.527161 
	C97.017258,530.527161 97.319000,530.832764 97.602180,531.168457 
	C98.930832,532.463928 99.976303,533.423706 102.040352,535.318604 
	C101.441750,532.495117 101.181602,531.268127 100.921455,530.041077 
	C102.659103,531.238831 104.542679,532.271973 106.110008,533.661804 
	C114.461914,541.067871 122.808922,548.483826 130.957092,556.110657 
	C132.220322,557.293152 132.448181,559.581665 132.814667,561.682983 
	C132.474487,562.007324 132.109787,562.040466 131.971375,561.904419 
	C131.702057,561.527466 131.504791,561.369263 130.926636,561.133667 
	C127.829102,559.872986 126.805054,560.945923 127.424873,563.701782 
	C127.815926,565.440430 128.473312,567.119263 129.011230,568.824890 
	C99.879684,547.284363 76.054436,520.781250 55.944138,490.398254 
	C57.608395,487.146667 59.090336,483.801422 63.856731,486.469360 
	C64.174194,487.367401 64.139648,487.850067 64.098984,488.389771 
	C64.092865,488.446747 64.026291,488.540039 63.993847,488.772278 
	C64.750610,489.631348 65.539818,490.258179 66.329025,490.885010 
	C66.821487,494.259369 67.648857,497.402130 71.805115,498.907349 
	C72.569878,500.033112 73.072319,500.675781 73.574768,501.318420 
	C73.661110,501.467621 73.747459,501.616791 73.841400,502.230560 
	C74.604355,503.602081 75.359703,504.509064 76.115059,505.416016 
	C76.652031,505.778381 77.188995,506.140778 77.901138,507.019714 
	C78.778084,508.647949 79.479858,509.759644 80.173363,511.212646 
	C81.620438,512.877136 83.075783,514.200378 84.531120,515.523621 
	C85.535240,516.402771 86.539368,517.281982 87.607681,518.592651 
	C88.417915,519.778809 89.163948,520.533447 89.909988,521.288086 
M107.857513,543.240662 
	C107.963165,543.095215 108.068817,542.949707 108.174461,542.804260 
	C108.020317,542.895752 107.866180,542.987305 107.857513,543.240662 
M121.448730,552.963867 
	C121.448730,552.963867 121.520668,552.937561 121.448730,552.963867 
M125.524689,557.500305 
	C125.524689,557.500305 125.486404,557.513062 125.524689,557.500305 
z"/>
<path fill="#FF4538" opacity="1.000000" stroke="none" 
	d="
M33.449020,431.813263 
	C30.915117,431.231628 28.381212,430.649963 25.515945,430.032684 
	C20.850370,415.446777 16.409857,400.926605 12.270861,386.320984 
	C11.434302,383.368958 12.330055,379.906403 11.410255,377.001129 
	C8.145079,366.687775 6.512478,356.205933 7.023221,345.415009 
	C7.184409,342.009460 7.727643,338.621948 8.167391,334.568420 
	C12.965695,338.560883 12.280915,343.769073 12.916323,348.328033 
	C14.204855,357.573029 14.473347,366.985291 16.176855,376.139862 
	C17.721285,384.439453 20.569929,392.500824 22.931862,400.641632 
	C23.913704,404.025665 25.124805,407.343201 26.583397,410.799286 
	C26.935141,410.907593 27.017250,411.080353 26.990196,411.393555 
	C27.302820,412.453308 27.642498,413.199799 27.982180,413.946320 
	C28.073130,414.385437 28.164076,414.824554 28.370693,415.880249 
	C28.981266,417.105988 29.476166,417.715118 29.971073,418.324249 
	C29.739826,418.714783 29.508572,419.105316 29.065228,419.913513 
	C28.900139,420.931366 28.947142,421.531555 28.994146,422.131744 
	C30.444105,424.730743 31.894064,427.329773 33.668671,430.304321 
	C33.811882,431.057678 33.630451,431.435486 33.449020,431.813263 
z"/>
<path fill="#FF4538" opacity="1.000000" stroke="none" 
	d="
M145.745453,568.989502 
	C144.697266,570.122253 143.248535,571.118591 142.134918,572.405090 
	C141.183426,573.504333 140.616592,574.936523 139.942841,576.522339 
	C139.392654,576.436462 138.779251,576.049744 137.978729,575.296265 
	C137.578522,574.756714 137.341873,574.720276 137.081665,574.820190 
	C136.214005,574.199646 135.346344,573.579102 134.504883,572.511719 
	C134.553131,571.583923 134.575165,571.103027 134.597214,570.622192 
	C134.067657,571.022644 133.538086,571.423096 133.008514,571.823486 
	C132.377609,571.414734 131.746735,571.005981 131.261810,570.101074 
	C133.653214,568.016479 135.762695,566.366699 134.335693,563.120239 
	C135.049835,562.830994 135.763977,562.541748 136.764191,562.406250 
	C137.703247,563.039307 138.356216,563.518616 139.009186,563.997925 
	C139.811691,564.246948 140.614197,564.496033 141.723267,565.238647 
	C143.013245,566.807190 143.996643,567.882263 144.980042,568.957336 
	C145.150146,568.964600 145.320236,568.971802 145.745453,568.989502 
M138.501724,567.526855 
	C138.501724,567.526855 138.488297,567.488953 138.501724,567.526855 
z"/>
<path fill="#FF4538" opacity="1.000000" stroke="none" 
	d="
M47.894653,460.936127 
	C48.110603,462.948303 49.261791,465.827911 48.358398,466.801880 
	C46.100559,469.236206 44.472366,466.842712 43.098854,464.904633 
	C42.925522,464.660095 42.190819,464.813354 41.442047,464.877380 
	C40.445415,463.561890 39.722950,462.151306 38.965919,460.392242 
	C39.767475,457.794495 40.603600,455.545258 41.969723,453.176208 
	C42.666504,453.055573 42.833286,453.054718 43.003372,453.295410 
	C43.006676,453.537018 43.017071,454.020111 43.068954,454.371552 
	C44.712112,456.794037 46.303383,458.865082 47.894653,460.936127 
z"/>
<path fill="#FF4838" opacity="1.000000" stroke="none" 
	d="
M134.062836,562.958618 
	C135.762695,566.366699 133.653214,568.016479 131.151031,569.824890 
	C130.440201,569.716309 129.986099,569.387695 129.271622,568.942017 
	C128.473312,567.119263 127.815926,565.440430 127.424873,563.701782 
	C126.805054,560.945923 127.829102,559.872986 130.794098,561.384399 
	C130.854294,562.140381 130.732483,562.485474 130.610687,562.830505 
	C131.110367,562.567139 131.610077,562.303772 132.109787,562.040466 
	C132.109787,562.040466 132.474487,562.007324 132.656586,561.984009 
	C133.155792,562.239502 133.472900,562.518311 134.062836,562.958618 
z"/>
<path fill="#FE4439" opacity="1.000000" stroke="none" 
	d="
M332.670013,591.094360 
	C334.248810,592.089355 335.495911,593.018066 336.745117,593.944092 
	C332.116608,595.696411 331.585632,595.504028 330.934601,591.488281 
	C331.445587,591.119080 331.891937,591.073608 332.670013,591.094360 
z"/>
<path fill="#FF4538" opacity="1.000000" stroke="none" 
	d="
M49.971893,480.424194 
	C51.014404,479.497711 52.085102,478.897064 53.155804,478.296417 
	C52.704826,479.790375 52.253845,481.284363 51.490139,482.886230 
	C50.784973,482.246124 50.392529,481.498047 49.971893,480.424194 
z"/>
<path fill="#FF4838" opacity="1.000000" stroke="none" 
	d="
M133.197021,571.912720 
	C133.538086,571.423096 134.067657,571.022644 134.597214,570.622192 
	C134.575165,571.103027 134.553131,571.583923 134.326630,572.229004 
	C133.884583,572.247803 133.639023,572.117371 133.197021,571.912720 
z"/>
<path fill="#FF4538" opacity="1.000000" stroke="none" 
	d="
M251.062805,626.354614 
	C251.850113,626.148804 252.809708,626.252563 253.884720,626.595642 
	C253.078461,626.778015 252.156754,626.721130 251.062805,626.354614 
z"/>
<path fill="#FF4538" opacity="1.000000" stroke="none" 
	d="
M243.081085,624.338013 
	C243.573914,624.169067 244.198868,624.282837 244.912827,624.613892 
	C244.405609,624.761108 243.809402,624.690918 243.081085,624.338013 
z"/>
<path fill="#FF4538" opacity="1.000000" stroke="none" 
	d="
M247.084106,625.400757 
	C247.575485,625.213257 248.198410,625.306396 248.911697,625.615356 
	C248.406570,625.781250 247.811111,625.731384 247.084106,625.400757 
z"/>
<path fill="#FF0000" opacity="1.000000" stroke="none" 
	d="
M61.121674,467.615845 
	C61.606426,467.373657 62.185715,467.540222 62.798706,467.854004 
	C62.293678,468.009003 61.754948,468.016785 61.121674,467.615845 
z"/>
<path fill="#FF0000" opacity="1.000000" stroke="none" 
	d="
M58.715416,466.441162 
	C57.958633,466.330353 57.083385,465.961151 56.164207,465.276123 
	C56.945839,465.367798 57.771397,465.775299 58.715416,466.441162 
z"/>
<path fill="#FF4538" opacity="1.000000" stroke="none" 
	d="
M239.021820,623.333740 
	C239.419632,623.211121 239.955338,623.375183 240.730194,623.688110 
	C240.366135,623.764771 239.762924,623.692566 239.021820,623.333740 
z"/>
<path fill="#FF4538" opacity="1.000000" stroke="none" 
	d="
M33.149048,449.296204 
	C33.380833,449.253418 33.565289,449.484955 33.840652,449.925537 
	C33.677425,449.928650 33.400810,449.740631 33.149048,449.296204 
z"/>
<path fill="#FF4838" opacity="1.000000" stroke="none" 
	d="
M137.297363,574.909180 
	C137.341873,574.720276 137.578522,574.756714 137.876907,575.027405 
	C137.962234,575.125244 137.513092,574.998230 137.297363,574.909180 
z"/>
<path fill="#FF4637" opacity="1.000000" stroke="none" 
	d="
M637.715454,304.248474 
	C638.339600,306.096802 639.041748,308.214996 638.941284,310.294434 
	C638.093567,327.843018 637.082642,345.383667 636.179077,362.929688 
	C636.104187,364.383881 636.457336,365.860107 637.115601,367.663605 
	C638.025024,368.001404 638.430359,368.001709 638.835693,368.002045 
	C636.104126,388.572876 631.326416,408.689453 623.858582,428.020111 
	C618.522644,441.832397 612.163452,455.259766 605.980408,468.730133 
	C602.873108,475.499847 599.515442,482.217255 595.570374,488.519714 
	C592.513550,493.403107 588.368774,497.605499 584.575562,502.273224 
	C583.417969,501.329468 582.616211,500.675842 581.465881,500.033691 
	C580.802246,499.141998 579.935486,497.839569 580.256165,497.396423 
	C584.153564,492.010193 588.390381,486.864105 592.165161,481.397522 
	C593.526245,479.426422 593.669495,476.659821 594.740906,474.435638 
	C599.858765,463.812103 605.406433,453.386078 610.242798,442.638519 
	C620.736816,419.318695 627.771423,394.920135 631.972412,369.700195 
	C632.245422,368.061218 632.605347,366.436676 633.182251,364.319183 
	C633.293884,363.222565 633.148132,362.612213 633.002441,362.001831 
	C636.327515,345.333649 636.030273,328.453369 636.064941,311.582581 
	C636.069824,309.220947 636.947632,306.861053 637.715454,304.248474 
z"/>
<path fill="#FF4538" opacity="1.000000" stroke="none" 
	d="
M376.557800,623.000305 
	C376.548492,623.853088 376.179535,625.395020 375.638550,625.457886 
	C363.991089,626.812500 352.324738,628.004944 340.661133,629.220337 
	C338.365143,629.459717 336.055084,629.932129 333.769409,629.842285 
	C318.053955,629.224548 302.342560,628.500549 286.633331,627.739075 
	C285.905182,627.703735 285.210236,626.983032 284.253723,626.289978 
	C290.914398,626.146179 297.820648,626.378784 304.728088,626.423401 
	C317.490509,626.505859 330.274323,626.935059 343.010223,626.358215 
	C354.074188,625.857117 365.084198,624.165894 376.557800,623.000305 
z"/>
<path fill="#000000" opacity="1.000000" stroke="none" 
	d="
M370.668030,592.893677 
	C382.225464,590.207031 393.453369,587.594910 404.681274,584.982788 
	C404.816437,585.652771 404.951630,586.322754 405.086823,586.992737 
	C390.181946,589.998291 375.277069,593.003784 360.372223,596.009277 
	C360.265106,595.486389 360.158020,594.963501 360.050903,594.440613 
	C362.761566,593.954346 365.472229,593.468140 368.591431,592.910095 
	C369.446136,592.881592 369.892303,592.924927 370.668030,592.893677 
z"/>
<path fill="#FF4838" opacity="1.000000" stroke="none" 
	d="
M559.554565,533.838379 
	C558.774963,535.255920 557.713867,536.511658 556.350708,537.922913 
	C554.640198,536.163635 552.212585,534.279358 552.153931,532.324097 
	C552.109009,530.826843 555.056702,529.239929 556.979919,527.399597 
	C558.005249,530.206177 558.639221,531.941345 559.554565,533.838379 
z"/>
<path fill="#FF4538" opacity="1.000000" stroke="none" 
	d="
M264.623169,621.000000 
	C265.215637,621.770020 265.433746,622.539978 265.809631,623.867188 
	C263.931824,623.265991 261.213898,625.337036 261.817993,621.162109 
	C262.751221,621.000000 263.500000,621.000000 264.623169,621.000000 
z"/>
<path fill="#FF4538" opacity="1.000000" stroke="none" 
	d="
M278.747681,624.997986 
	C275.873657,624.801514 272.746246,624.599854 269.307251,624.199890 
	C268.995697,624.001587 268.999847,623.504395 269.289001,623.381409 
	C270.376068,623.490234 271.173920,623.722046 271.971771,623.953918 
	C273.044983,623.968445 274.118195,623.982910 275.814636,624.173218 
	C276.954407,624.560303 277.470886,624.771606 277.987366,624.982910 
	C278.156342,624.986267 278.325287,624.989563 278.747681,624.997986 
z"/>
<path fill="#FF4538" opacity="1.000000" stroke="none" 
	d="
M176.748322,589.000000 
	C177.507339,590.187988 178.018951,591.376038 178.608002,592.743835 
	C175.032379,591.981750 175.032379,591.981750 175.942169,589.217041 
	C176.006104,589.000000 176.500916,589.000000 176.748322,589.000000 
z"/>
<path fill="#FF1009" opacity="1.000000" stroke="none" 
	d="
M100.599838,530.209351 
	C101.181602,531.268127 101.441750,532.495117 102.040352,535.318604 
	C99.976303,533.423706 98.930832,532.463928 97.677414,531.245117 
	C98.405716,530.783325 99.341972,530.580505 100.599838,530.209351 
z"/>
<path fill="#FF4538" opacity="1.000000" stroke="none" 
	d="
M149.827698,571.860229 
	C150.008865,572.985168 150.008865,573.954346 150.008865,574.970032 
	C146.812241,573.893921 146.812241,573.893921 148.795807,571.189270 
	C149.197205,571.253418 149.412659,571.487488 149.827698,571.860229 
z"/>
<path fill="#FF1009" opacity="1.000000" stroke="none" 
	d="
M97.070908,530.175781 
	C96.101585,529.341370 95.185898,528.155579 94.365685,526.646851 
	C94.461151,526.323853 94.803696,526.341736 94.971237,526.383301 
	C95.800697,527.558105 96.462616,528.691284 97.070908,530.175781 
z"/>
<path fill="#FF4838" opacity="1.000000" stroke="none" 
	d="
M144.945786,568.628601 
	C143.996643,567.882263 143.013245,566.807190 142.011566,565.368530 
	C142.966034,566.103149 143.938782,567.201538 144.945786,568.628601 
z"/>
<path fill="#FF4838" opacity="1.000000" stroke="none" 
	d="
M153.000916,573.998779 
	C153.913101,574.468384 154.824356,574.939270 155.869598,575.702637 
	C156.003555,575.995117 155.999725,576.000000 155.723236,576.099243 
	C154.630951,575.466370 153.815170,574.734253 152.999390,574.002136 
	C152.999390,574.002136 153.000000,574.000000 153.000916,573.998779 
z"/>
<path fill="#000000" opacity="1.000000" stroke="none" 
	d="
M184.913147,596.107239 
	C183.604919,595.322693 182.296677,594.538208 181.031738,593.396729 
	C181.075043,593.039734 181.547119,592.981201 181.773560,592.908447 
	C183.090775,593.507263 184.181564,594.178833 185.291229,595.282837 
	C185.177795,595.846008 185.045471,595.976624 184.913147,596.107239 
z"/>
<path fill="#FF4838" opacity="1.000000" stroke="none" 
	d="
M138.898956,563.721680 
	C138.356216,563.518616 137.703247,563.039307 137.026062,562.283325 
	C137.597458,562.486328 138.193100,562.965881 138.898956,563.721680 
z"/>
<path fill="#FF4838" opacity="1.000000" stroke="none" 
	d="
M271.868652,623.693970 
	C271.173920,623.722046 270.376068,623.490234 269.290833,623.132812 
	C269.924164,623.149475 270.844818,623.291748 271.868652,623.693970 
z"/>
<path fill="#FE4437" opacity="1.000000" stroke="none" 
	d="
M356.267120,602.034424 
	C356.089081,602.101624 355.915619,602.058838 355.742188,602.016052 
	C355.918701,601.985474 356.095215,601.954956 356.267120,602.034424 
z"/>
<path fill="#FF4538" opacity="1.000000" stroke="none" 
	d="
M250.661667,619.000000 
	C250.385574,619.146606 249.778152,619.293213 249.087799,619.219910 
	C249.446701,619.000000 249.888504,619.000000 250.661667,619.000000 
z"/>
<path fill="#FF4838" opacity="1.000000" stroke="none" 
	d="
M277.913879,624.757080 
	C277.470886,624.771606 276.954407,624.560303 276.217102,624.174561 
	C276.611023,624.177124 277.225739,624.354187 277.913879,624.757080 
z"/>
<path fill="#FF4D3B" opacity="1.000000" stroke="none" 
	d="
M633.002075,362.335022 
	C633.148132,362.612213 633.293884,363.222565 633.219727,363.917084 
	C633.000549,363.556885 633.001160,363.112579 633.002075,362.335022 
z"/>
<path fill="#FE4439" opacity="1.000000" stroke="none" 
	d="
M531.410034,560.921021 
	C527.386902,557.795349 532.768005,557.883850 532.940308,556.064209 
	C533.956177,556.200256 534.972107,556.336304 536.037354,556.777710 
	C536.086792,557.083008 536.055725,557.028625 535.892212,557.153076 
	C535.474060,557.444092 535.235535,557.631226 535.013184,557.838867 
	C533.910156,558.825195 532.807129,559.811523 531.410034,560.921021 
z"/>
<path fill="#FE4439" opacity="1.000000" stroke="none" 
	d="
M403.359222,626.904663 
	C403.395233,625.416199 402.504639,622.414368 405.920959,624.834839 
	C405.268616,625.733154 404.494354,626.353577 403.359222,626.904663 
z"/>
<path fill="#FE4439" opacity="1.000000" stroke="none" 
	d="
M638.903687,367.669952 
	C638.430359,368.001709 638.025024,368.001404 637.315918,368.001160 
	C637.446533,367.410248 637.880859,366.819275 638.574951,366.112061 
	C638.880310,366.443176 638.926025,366.890533 638.903687,367.669952 
z"/>
<path fill="#FF4838" opacity="1.000000" stroke="none" 
	d="
M535.276123,557.863770 
	C535.235535,557.631226 535.474060,557.444092 535.923157,557.158325 
	C535.924805,557.322327 535.731934,557.605530 535.276123,557.863770 
z"/>
<path fill="#000000" opacity="1.000000" stroke="none" 
	d="
M464.080048,601.080627 
	C448.531342,607.381836 432.984589,613.687805 417.423157,619.957458 
	C417.025360,620.117737 416.467010,619.879639 415.199921,619.742554 
	C424.363831,616.328979 432.902588,613.321777 441.302429,609.966797 
	C448.533264,607.078674 455.605774,603.794128 463.231903,600.680847 
	C463.837006,600.811401 463.958527,600.946045 464.080048,601.080627 
z"/>
<path fill="#000000" opacity="1.000000" stroke="none" 
	d="
M467.330353,598.290100 
	C470.541321,596.536682 473.752289,594.783264 476.963226,593.029846 
	C477.220276,593.527344 477.477325,594.024780 477.734375,594.522278 
	C474.756409,596.013245 471.778412,597.504211 468.252594,598.838745 
	C467.579956,598.551575 467.455139,598.420837 467.330353,598.290100 
z"/>
<path fill="#000000" opacity="1.000000" stroke="none" 
	d="
M185.513138,595.524170 
	C189.572739,597.219543 193.429321,599.106079 197.601196,601.305969 
	C197.723038,601.896729 197.467560,602.093872 197.150085,602.210632 
	C193.188431,600.381592 189.226791,598.552612 185.089142,596.415405 
	C185.045471,595.976624 185.177795,595.846008 185.513138,595.524170 
z"/>
<path fill="#FF4538" opacity="1.000000" stroke="none" 
	d="
M162.000916,580.000000 
	C161.160187,581.091492 160.318573,582.183044 159.476959,583.274597 
	C158.865799,582.443420 158.254639,581.612244 157.643463,580.781006 
	C158.881302,580.478943 160.119156,580.176819 161.678192,579.936157 
	C161.999390,579.997559 162.000000,580.000000 162.000916,580.000000 
z"/>
<path fill="#FF4538" opacity="1.000000" stroke="none" 
	d="
M152.822311,574.267334 
	C153.815170,574.734253 154.630951,575.466370 155.721420,576.101685 
	C155.015427,576.652588 154.034744,577.300293 153.054047,577.948059 
	C152.917786,576.809570 152.781494,575.671082 152.822311,574.267334 
z"/>
<path fill="#FF4538" opacity="1.000000" stroke="none" 
	d="
M168.002777,584.003662 
	C167.686188,584.925476 167.366898,585.843628 167.047607,586.761780 
	C166.642044,586.553345 166.236465,586.344971 165.830887,586.136536 
	C166.395584,585.501587 166.960297,584.866638 167.759003,584.114502 
	C167.993011,583.997314 168.000076,584.000000 168.002777,584.003662 
z"/>
<path fill="#000000" opacity="1.000000" stroke="none" 
	d="
M463.536041,600.472412 
	C464.499634,599.732788 465.642700,599.197632 467.058075,598.476318 
	C467.455139,598.420837 467.579956,598.551575 467.888977,598.881226 
	C466.966400,599.721069 465.859650,600.362000 464.416473,601.041748 
	C463.958527,600.946045 463.837006,600.811401 463.536041,600.472412 
z"/>
<path fill="#FF4538" opacity="1.000000" stroke="none" 
	d="
M206.479706,605.017456 
	C206.298599,605.365173 206.015533,605.647522 205.674225,605.781128 
	C205.585907,605.815735 205.315094,605.384094 205.128113,605.166626 
	C205.537430,605.076660 205.946747,604.986694 206.479706,605.017456 
z"/>
<path fill="#FF4538" opacity="1.000000" stroke="none" 
	d="
M281.221741,631.993774 
	C280.683716,631.529602 280.395844,631.046936 280.013550,630.294556 
	C280.529816,630.479431 281.140442,630.934021 281.861389,631.660156 
	C281.805084,631.946167 281.638489,631.960693 281.221741,631.993774 
z"/>
<path fill="#FF4538" opacity="1.000000" stroke="none" 
	d="
M217.169052,610.224121 
	C216.993591,610.141418 216.900299,609.984802 216.807022,609.828186 
	C216.955093,609.935486 217.103165,610.042847 217.169052,610.224121 
z"/>
<path fill="#FF4538" opacity="1.000000" stroke="none" 
	d="
M232.157455,615.213013 
	C231.982147,615.129883 231.888992,614.973022 231.795837,614.816223 
	C231.943771,614.923889 232.091690,615.031555 232.157455,615.213013 
z"/>
<path fill="#FF4538" opacity="1.000000" stroke="none" 
	d="
M241.780457,618.158936 
	C241.862335,617.984802 242.017822,617.892334 242.173309,617.799927 
	C242.066895,617.946838 241.960480,618.093750 241.780457,618.158936 
z"/>
<path fill="#FF4538" opacity="1.000000" stroke="none" 
	d="
M197.305344,602.302246 
	C197.467560,602.093872 197.723038,601.896729 197.964935,601.381348 
	C197.829102,601.560181 197.644852,601.977051 197.305344,602.302246 
z"/>
<path fill="#FF4538" opacity="1.000000" stroke="none" 
	d="
M173.000305,587.000000 
	C172.785721,587.387634 172.570831,587.775330 172.355942,588.162964 
	C172.462860,587.844055 172.569778,587.525146 172.838043,587.103149 
	C172.999390,587.000000 173.000000,587.000000 173.000305,587.000000 
z"/>
<path fill="#FF4538" opacity="1.000000" stroke="none" 
	d="
M281.495483,626.505981 
	C281.488708,626.486572 281.502289,626.525391 281.495483,626.505981 
z"/>
<path fill="#FE4439" opacity="1.000000" stroke="none" 
	d="
M480.494385,590.495972 
	C480.513580,590.489441 480.475189,590.502563 480.494385,590.495972 
z"/>
<path fill="#000000" opacity="1.000000" stroke="none" 
	d="
M217.974106,585.475952 
	C224.386002,587.788025 230.403900,590.339966 236.675873,591.802002 
	C251.058823,595.154846 265.532471,598.149048 280.036835,600.937622 
	C286.915924,602.260193 293.949738,602.777710 300.867981,603.836792 
	C271.180176,603.829773 242.969238,596.934143 215.790573,585.065125 
	C216.425552,585.116943 217.060516,585.168823 217.974106,585.475952 
z"/>
<path fill="#000000" opacity="1.000000" stroke="none" 
	d="
M287.347992,595.926575 
	C301.843750,595.971252 315.883484,595.971252 329.923218,595.971252 
	C329.912659,596.532654 329.902130,597.094116 329.891571,597.655518 
	C305.266937,599.506409 280.884491,598.353210 257.073547,590.765503 
	C267.013000,592.470947 276.952484,594.176453 287.347992,595.926575 
z"/>
<path fill="#FF1009" opacity="1.000000" stroke="none" 
	d="
M48.087341,460.723999 
	C46.303383,458.865082 44.712112,456.794037 43.353058,454.257996 
	C43.890102,453.519806 44.194939,453.246674 44.588055,452.837036 
	C44.909210,452.478516 45.172211,452.298126 45.465332,452.159424 
	C46.403564,454.943573 47.341793,457.727722 48.087341,460.723999 
M47.503304,458.665680 
	C47.503304,458.665680 47.629196,458.441895 47.629196,458.441895 
	C47.629196,458.441895 47.365585,458.476624 47.503304,458.665680 
z"/>
<path fill="#FF1009" opacity="1.000000" stroke="none" 
	d="
M84.693375,515.225281 
	C83.075783,514.200378 81.620438,512.877136 80.365814,511.159515 
	C80.566536,510.765106 80.932869,510.604950 80.932869,510.604950 
	C82.240456,512.045593 83.548035,513.486267 84.693375,515.225281 
z"/>
<path fill="#FE4439" opacity="1.000000" stroke="none" 
	d="
M343.322876,592.968262 
	C344.771423,592.510925 346.205170,592.326843 347.638916,592.142700 
	C347.652435,592.652527 347.665985,593.162354 347.679504,593.672119 
	C346.222351,593.528564 344.765198,593.385010 343.322876,592.968262 
z"/>
<path fill="#FF0000" opacity="1.000000" stroke="none" 
	d="
M45.432487,451.841553 
	C45.172211,452.298126 44.909210,452.478516 44.210716,452.820801 
	C43.496758,452.978638 43.248413,453.016235 43.000072,453.053833 
	C42.833286,453.054718 42.666504,453.055573 42.251350,453.026398 
	C41.769424,452.129974 41.535881,451.263611 41.421913,450.099701 
	C42.008774,449.461731 42.476059,449.121277 42.943344,448.780823 
	C43.762112,449.695099 44.580875,450.609375 45.432487,451.841553 
z"/>
<path fill="#FF1009" opacity="1.000000" stroke="none" 
	d="
M64.105095,488.332764 
	C64.139648,487.850067 64.174194,487.367401 64.239868,486.525879 
	C64.915031,487.507477 65.559082,488.847870 66.266083,490.536621 
	C65.539818,490.258179 64.750610,489.631348 64.030251,488.761658 
	C64.099098,488.518829 64.105095,488.332764 64.105095,488.332764 
z"/>
<path fill="#FF1009" opacity="1.000000" stroke="none" 
	d="
M36.420235,440.879547 
	C36.556286,439.948059 36.692337,439.016541 36.868164,437.719177 
	C36.907944,437.353271 36.918953,437.330200 36.918949,437.330200 
	C37.709267,438.416931 38.499592,439.503662 38.897903,440.646667 
	C37.810677,440.761810 37.115456,440.820679 36.420235,440.879547 
z"/>
<path fill="#FF6A6A" opacity="1.000000" stroke="none" 
	d="
M42.912689,448.499634 
	C42.476059,449.121277 42.008774,449.461731 41.260452,449.875549 
	C41.177765,448.717163 41.376114,447.485413 41.574463,446.253662 
	C42.010319,446.908600 42.446175,447.563538 42.912689,448.499634 
z"/>
<path fill="#FF1009" opacity="1.000000" stroke="none" 
	d="
M74.101868,488.382385 
	C74.619644,489.507385 75.137421,490.632385 75.655197,491.757385 
	C75.263618,491.939545 74.872047,492.121704 74.480469,492.303833 
	C74.039207,491.664825 73.597939,491.025787 73.362503,490.116058 
	C73.746178,489.357697 73.924026,488.870026 74.101868,488.382385 
z"/>
<path fill="#FF1009" opacity="1.000000" stroke="none" 
	d="
M90.002609,521.064575 
	C89.163948,520.533447 88.417915,519.778809 87.851379,518.819214 
	C88.719009,519.356445 89.407127,520.098755 90.002609,521.064575 
z"/>
<path fill="#FF1009" opacity="1.000000" stroke="none" 
	d="
M76.172760,505.211121 
	C75.359703,504.509064 74.604355,503.602081 73.972412,502.453491 
	C74.807365,503.143280 75.518921,504.074768 76.172760,505.211121 
z"/>
<path fill="#FF0000" opacity="1.000000" stroke="none" 
	d="
M80.953354,510.268433 
	C80.932869,510.604950 80.566536,510.765106 80.374084,510.818237 
	C79.479858,509.759644 78.778084,508.647949 78.162163,507.211517 
	C79.156616,507.901825 80.065224,508.916870 80.953354,510.268433 
z"/>
<path fill="#FE4439" opacity="1.000000" stroke="none" 
	d="
M319.756104,601.405640 
	C319.097107,601.388062 318.584747,601.212097 318.072418,601.036133 
	C318.257599,600.811707 318.554688,600.368713 318.610260,600.397278 
	C319.066528,600.630981 319.477814,600.952454 319.756104,601.405640 
z"/>
<path fill="#FF0000" opacity="1.000000" stroke="none" 
	d="
M56.511604,479.015320 
	C57.067642,478.402710 57.674801,478.051605 58.281948,477.700500 
	C58.489635,478.074249 58.697330,478.447998 58.905029,478.821716 
	C58.124268,478.973450 57.343498,479.125183 56.511604,479.015320 
z"/>
<path fill="#FF0000" opacity="1.000000" stroke="none" 
	d="
M65.052170,476.611511 
	C62.072323,477.451965 61.754978,475.579041 62.165733,473.184326 
	C62.744743,473.006042 62.916260,473.022766 63.087776,473.039520 
	C63.087776,473.039520 62.961277,473.033539 62.985691,473.341003 
	C63.690788,474.636169 64.371475,475.623840 65.052170,476.611511 
z"/>
<path fill="#FF0000" opacity="1.000000" stroke="none" 
	d="
M55.084522,470.526917 
	C54.691319,471.086304 54.137871,471.480347 53.584423,471.874390 
	C53.433205,471.638824 53.281990,471.403259 53.130772,471.167694 
	C53.728607,470.898987 54.326443,470.630249 55.084522,470.526917 
z"/>
<path fill="#FF4538" opacity="1.000000" stroke="none" 
	d="
M34.674484,444.504639 
	C34.747730,444.879303 34.652988,445.207367 34.531979,445.525421 
	C34.527557,445.537018 34.265503,445.450562 34.123528,445.409790 
	C34.249722,445.091980 34.375916,444.774170 34.674484,444.504639 
z"/>
<path fill="#FF0000" opacity="1.000000" stroke="none" 
	d="
M33.408249,432.036987 
	C33.630451,431.435486 33.811882,431.057678 33.973206,430.470032 
	C34.078308,431.064850 34.203514,431.869568 34.328720,432.674286 
	C34.008312,432.536407 33.687897,432.398560 33.408249,432.036987 
z"/>
<path fill="#FF0000" opacity="1.000000" stroke="none" 
	d="
M29.241070,422.034363 
	C28.947142,421.531555 28.900139,420.931366 28.967777,420.118561 
	C29.217609,420.582977 29.352804,421.259979 29.241070,422.034363 
z"/>
<path fill="#FF0000" opacity="1.000000" stroke="none" 
	d="
M30.142500,418.091797 
	C29.476166,417.715118 28.981266,417.105988 28.458683,416.204926 
	C29.058641,416.561798 29.686289,417.210571 30.142500,418.091797 
z"/>
<path fill="#FF0000" opacity="1.000000" stroke="none" 
	d="
M36.421555,441.125305 
	C37.115456,440.820679 37.810677,440.761810 38.668552,440.835236 
	C38.717319,441.162201 38.603436,441.356842 38.077782,441.807465 
	C37.445473,442.081696 37.226524,442.111572 37.009163,442.153107 
	C36.735622,441.950928 36.540195,441.690247 36.421555,441.125305 
z"/>
<path fill="#000000" opacity="1.000000" stroke="none" 
	d="
M68.038887,480.999298 
	C67.369926,480.296051 66.700966,479.592804 66.031998,478.889587 
	C66.451614,478.839905 66.871239,478.790222 67.630974,479.205505 
	C67.993683,480.113403 68.016281,480.556335 68.038887,480.999298 
z"/>
<path fill="#FE4439" opacity="1.000000" stroke="none" 
	d="
M114.784775,529.159912 
	C114.866150,528.987427 115.020302,528.895874 115.174454,528.804321 
	C115.068810,528.949829 114.963181,529.095398 114.784775,529.159912 
z"/>
<path fill="#000000" opacity="1.000000" stroke="none" 
	d="
M65.067841,476.219055 
	C64.371475,475.623840 63.690788,474.636169 62.988350,473.277710 
	C63.672230,473.880188 64.377869,474.853394 65.067841,476.219055 
z"/>
<path fill="#FF1009" opacity="1.000000" stroke="none" 
	d="
M68.020279,480.956787 
	C68.016281,480.556335 67.993683,480.113403 67.911842,479.342255 
	C68.496330,479.832977 69.140060,480.651917 69.580368,481.665771 
	C68.890076,481.557404 68.403221,481.254089 67.916367,480.950806 
	C67.916359,480.950806 68.001686,480.914246 68.020279,480.956787 
z"/>
<path fill="#FF1009" opacity="1.000000" stroke="none" 
	d="
M59.434517,482.115356 
	C59.295444,481.735809 59.342678,481.410370 59.389915,481.084930 
	C59.650497,481.164673 59.911072,481.244415 60.171646,481.324158 
	C59.988041,481.605927 59.804432,481.887726 59.434517,482.115356 
z"/>
<path fill="#000000" opacity="1.000000" stroke="none" 
	d="
M67.939102,481.298157 
	C68.403221,481.254089 68.890076,481.557404 69.650711,481.971252 
	C69.962242,482.495758 70.000008,482.909729 70.060501,483.615356 
	C70.083229,483.907013 70.130905,483.858337 70.130905,483.858337 
	C69.407883,483.120728 68.684853,482.383087 67.939102,481.298157 
z"/>
<path fill="#000000" opacity="1.000000" stroke="none" 
	d="
M72.124222,486.870148 
	C71.414230,486.101624 70.704231,485.333130 70.062569,484.211487 
	C70.130905,483.858337 70.083229,483.907013 70.059647,483.926941 
	C70.699593,484.728607 71.363113,485.510284 72.051331,486.604980 
	C72.076019,486.917969 72.124222,486.870148 72.124222,486.870148 
z"/>
<path fill="#000000" opacity="1.000000" stroke="none" 
	d="
M73.833115,488.199158 
	C73.924026,488.870026 73.746178,489.357697 73.295967,489.854309 
	C72.678070,489.085541 72.332527,488.307800 72.055603,487.200134 
	C72.124222,486.870148 72.076019,486.917969 72.052322,486.937958 
	C72.540535,487.310608 73.052444,487.663269 73.833115,488.199158 
z"/>
<path fill="#FF4538" opacity="1.000000" stroke="none" 
	d="
M50.159927,474.215271 
	C49.987396,474.133881 49.895863,473.979675 49.804337,473.825500 
	C49.949871,473.931152 50.095394,474.036835 50.159927,474.215271 
z"/>
<path fill="#FF0000" opacity="1.000000" stroke="none" 
	d="
M73.647453,501.084595 
	C73.072319,500.675781 72.569878,500.033112 72.095673,499.101990 
	C72.655983,499.492584 73.188057,500.171692 73.647453,501.084595 
z"/>
<path fill="#FE4439" opacity="1.000000" stroke="none" 
	d="
M99.732834,515.965576 
	C99.910942,515.898315 100.084427,515.941101 100.257912,515.983887 
	C100.081352,516.014465 99.904785,516.044983 99.732834,515.965576 
z"/>
<path fill="#FE4439" opacity="1.000000" stroke="none" 
	d="
M136.784683,542.159912 
	C136.866135,541.987366 137.020355,541.895813 137.174561,541.804260 
	C137.068848,541.949829 136.963150,542.095337 136.784683,542.159912 
z"/>
<path fill="#FF0000" opacity="1.000000" stroke="none" 
	d="
M27.976351,413.644592 
	C27.642498,413.199799 27.302820,412.453308 27.031820,411.479675 
	C27.390509,411.949371 27.680517,412.646118 27.976351,413.644592 
z"/>
<path fill="#FF4538" opacity="1.000000" stroke="none" 
	d="
M32.159931,438.215393 
	C31.987320,438.133972 31.895725,437.979706 31.804142,437.825470 
	C31.949749,437.931152 32.095348,438.036865 32.159931,438.215393 
z"/>
<path fill="#000000" opacity="1.000000" stroke="none" 
	d="
M37.009338,442.414185 
	C37.226524,442.111572 37.445473,442.081696 37.826420,442.033875 
	C37.855625,442.538788 37.724422,443.073273 37.593224,443.607788 
	C37.398655,443.296936 37.204086,442.986084 37.009338,442.414185 
z"/>
<path fill="#FF0000" opacity="1.000000" stroke="none" 
	d="
M36.914577,437.130737 
	C36.918953,437.330200 36.907944,437.353271 36.897976,437.359680 
	C36.677086,437.070160 36.463642,436.775848 36.268677,436.469757 
	C36.263412,436.461487 36.457809,436.326080 36.559090,436.249969 
	C36.676125,436.477051 36.793163,436.704163 36.914577,437.130737 
z"/>
<path fill="#000000" opacity="1.000000" stroke="none" 
	d="
M63.046181,472.652374 
	C62.916260,473.022766 62.744743,473.006042 62.318256,472.945618 
	C61.738354,472.213257 61.413422,471.524658 61.088490,470.836029 
	C61.274925,470.695312 61.461361,470.554565 61.647800,470.413849 
	C62.100060,471.030975 62.552322,471.648102 63.046181,472.652374 
z"/>
<path fill="#FE4439" opacity="1.000000" stroke="none" 
	d="
M107.784775,543.159729 
	C107.866180,542.987305 108.020317,542.895752 108.174469,542.804260 
	C108.068817,542.949707 107.963165,543.095215 107.784775,543.159729 
z"/>
<path fill="#000000" opacity="1.000000" stroke="none" 
	d="
M131.971375,561.904419 
	C131.610077,562.303772 131.110367,562.567139 130.610687,562.830505 
	C130.732483,562.485474 130.854294,562.140381 131.108627,561.544617 
	C131.504791,561.369263 131.702057,561.527466 131.971375,561.904419 
z"/>
<path fill="#FE4439" opacity="1.000000" stroke="none" 
	d="
M121.484695,552.950684 
	C121.520668,552.937561 121.448730,552.963867 121.484695,552.950684 
z"/>
<path fill="#FE4437" opacity="1.000000" stroke="none" 
	d="
M64.098984,488.389771 
	C64.105095,488.332764 64.099098,488.518829 64.062698,488.529419 
	C64.026291,488.540039 64.092865,488.446747 64.098984,488.389771 
z"/>
<path fill="#FF4838" opacity="1.000000" stroke="none" 
	d="
M125.505547,557.506714 
	C125.486404,557.513062 125.524689,557.500305 125.505547,557.506714 
z"/>
<path fill="#FF4838" opacity="1.000000" stroke="none" 
	d="
M138.495010,567.507935 
	C138.488297,567.488953 138.501724,567.526855 138.495010,567.507935 
z"/>
<path fill="#FE4437" opacity="1.000000" stroke="none" 
	d="
M43.003372,453.295410 
	C43.248413,453.016235 43.496758,452.978638 44.122437,452.957275 
	C44.194939,453.246674 43.890102,453.519806 43.301170,453.906555 
	C43.017071,454.020111 43.006676,453.537018 43.003372,453.295410 
z"/>
<path fill="#FE4437" opacity="1.000000" stroke="none" 
	d="
M47.434444,458.571167 
	C47.365585,458.476624 47.629196,458.441895 47.629196,458.441895 
	C47.629196,458.441895 47.503304,458.665680 47.434444,458.571167 
z"/>
</svg>